<?xml version="1.0" encoding="UTF-8"?>
<svg version="1.1" xmlns="http://www.w3.org/2000/svg" width="2500" height="2500">
<path d="M0 0 C825 0 1650 0 2500 0 C2500 825 2500 1650 2500 2500 C1675 2500 850 2500 0 2500 C0 1675 0 850 0 0 Z " fill="#FEFEFE" transform="translate(0,0)"/>
<path d="M0 0 C2.32742467 0.63839223 4.6570342 1.08265576 7.03076172 1.51757812 C7.88927734 1.67806641 8.74779297 1.83855469 9.63232422 2.00390625 C11.40195645 2.33078935 13.17283303 2.65099983 14.94482422 2.96484375 C15.79818359 3.12662109 16.65154297 3.28839844 17.53076172 3.45507812 C18.29678711 3.59421631 19.0628125 3.73335449 19.85205078 3.87670898 C22.37759629 4.66601322 23.91402 5.96602016 26.01513672 7.55273438 C28.2136317 8.36614484 28.2136317 8.36614484 30.56982422 8.86914062 C31.43220703 9.07603516 32.29458984 9.28292969 33.18310547 9.49609375 C34.07642578 9.70041016 34.96974609 9.90472656 35.89013672 10.11523438 C46.75656906 12.66971592 46.75656906 12.66971592 52.01513672 14.55273438 C52.01513672 15.21273437 52.01513672 15.87273438 52.01513672 16.55273438 C53.29388672 16.80023437 54.57263672 17.04773438 55.89013672 17.30273438 C60.33603131 18.27832253 64.32151366 19.84130651 68.50732422 21.59960938 C72.27695765 23.03230495 76.06037054 23.78729576 80.01513672 24.55273438 C80.01513672 25.21273437 80.01513672 25.87273438 80.01513672 26.55273438 C80.65451172 26.65585937 81.29388672 26.75898437 81.95263672 26.86523438 C92.35846097 29.20123574 92.35846097 29.20123574 96.39013672 32.49023438 C99.76742451 35.14381764 103.23265588 36.17756166 107.26904297 37.56054688 C109.56209224 38.38904547 111.61730907 39.29037269 113.76513672 40.42773438 C118.17932115 42.74906532 122.81582408 44.50620517 127.47314453 46.27099609 C130.68658845 47.51466474 133.67347275 48.86910877 136.64794922 50.61523438 C140.30198194 52.71778685 143.90876748 54.0660166 147.87841797 55.42773438 C150.4790509 56.79698901 150.74766688 57.98700595 152.01513672 60.55273438 C153.9549529 61.45883429 153.9549529 61.45883429 156.14013672 61.80273438 C157.41888672 62.05023437 158.69763672 62.29773438 160.01513672 62.55273438 C160.01513672 63.21273437 160.01513672 63.87273437 160.01513672 64.55273438 C161.06701172 64.82085938 162.11888672 65.08898437 163.20263672 65.36523438 C166.62006257 66.42967849 169.01106117 67.68533606 172.01513672 69.55273438 C174.20644206 70.24852892 174.20644206 70.24852892 176.01513672 70.55273438 C176.01513672 71.21273437 176.01513672 71.87273437 176.01513672 72.55273438 C177.25263672 72.92398438 177.25263672 72.92398438 178.51513672 73.30273438 C181.84777064 74.49296078 184.84274166 75.9192479 187.97998047 77.53320312 C190.93657292 79.01433677 193.96326465 80.28112101 197.01513672 81.55273438 C197.01513672 82.21273437 197.01513672 82.87273437 197.01513672 83.55273438 C198.01287109 83.61589844 199.01060547 83.6790625 200.03857422 83.74414062 C204.71178207 84.41325368 207.88403275 86.76858587 211.64013672 89.49023438 C217.47621292 93.65493984 217.47621292 93.65493984 224.01513672 96.55273438 C224.01513672 97.21273437 224.01513672 97.87273437 224.01513672 98.55273438 C225.04638672 98.77960938 226.07763672 99.00648438 227.14013672 99.24023438 C231.27214062 100.3935447 233.73496312 102.81925638 237.01513672 105.55273438 C239.34905445 106.48346675 241.5487461 107.01012844 244.01513672 107.55273438 C244.01513672 108.54273438 244.01513672 109.53273438 244.01513672 110.55273438 C245.05734375 110.95105469 245.05734375 110.95105469 246.12060547 111.35742188 C249.27189748 112.65876514 252.28513843 114.13976821 255.32763672 115.67773438 C256.39626953 116.2165625 257.46490234 116.75539063 258.56591797 117.31054688 C259.37416016 117.72046875 260.18240234 118.13039063 261.01513672 118.55273438 C261.01513672 119.21273437 261.01513672 119.87273437 261.01513672 120.55273438 C261.98451172 120.75898437 262.95388672 120.96523438 263.95263672 121.17773438 C268.84774171 122.56200587 273.12587662 125.3072747 277.01513672 128.55273438 C277.01513672 129.21273437 277.01513672 129.87273437 277.01513672 130.55273438 C277.69576172 130.77960938 278.37638672 131.00648438 279.07763672 131.24023438 C282.18827451 132.63009381 284.58695679 134.36166591 287.30419922 136.38476562 C289.412432 137.82394736 291.63956488 138.64442749 294.01513672 139.55273438 C294.34513672 140.21273437 294.67513672 140.87273437 295.01513672 141.55273438 C296.14951172 142.02710938 297.28388672 142.50148438 298.45263672 142.99023438 C302.01513672 144.55273438 302.01513672 144.55273438 304.01513672 147.55273438 C305.66707256 148.68844226 305.66707256 148.68844226 307.51513672 149.61523438 C309.78800477 150.81426858 311.16569454 151.7032922 313.01513672 153.55273438 C314.66505254 154.25984116 316.33075928 154.93217426 318.01513672 155.55273438 C318.01513672 156.21273437 318.01513672 156.87273437 318.01513672 157.55273438 C318.75763672 157.61460937 319.50013672 157.67648437 320.26513672 157.74023438 C323.87572871 158.80700019 324.70301648 160.6285823 327.01513672 163.55273438 C328.71217368 164.5453409 330.41241915 165.53489493 332.15185547 166.45117188 C334.84598264 168.0439263 337.05001732 170.08876831 339.37841797 172.16601562 C341.43875189 173.91164461 343.6750629 175.21554934 346.01513672 176.55273438 C346.67513672 177.21273437 347.33513672 177.87273437 348.01513672 178.55273438 C348.77181641 178.83246094 349.52849609 179.1121875 350.30810547 179.40039062 C353.5682569 180.78818957 355.70135624 182.62074577 358.32763672 184.99023438 C359.21064453 185.77269531 360.09365234 186.55515625 361.00341797 187.36132812 C363.01513672 189.55273438 363.01513672 189.55273438 363.01513672 192.55273438 C364.04509766 192.78089844 365.07505859 193.0090625 366.13623047 193.24414062 C370.27280322 194.42735653 372.87136952 196.61346499 376.07763672 199.49023438 C379.89430226 202.89564292 383.34014214 205.44794484 388.01513672 207.55273438 C388.01513672 208.21273437 388.01513672 208.87273437 388.01513672 209.55273438 C388.67513672 209.55273438 389.33513672 209.55273438 390.01513672 209.55273438 C391.20887248 210.70830452 392.39646051 211.87108054 393.54785156 213.06884766 C396.15878892 215.7093264 399.00338327 218.08263012 401.82763672 220.49023438 C402.44566162 221.0180249 403.06368652 221.54581543 403.70043945 222.08959961 C408.80705783 226.42470003 413.89735941 230.74007315 419.70263672 234.11523438 C422.01513672 235.55273438 422.01513672 235.55273438 424.26513672 237.86523438 C426.65686052 240.20260082 428.78369629 241.77394088 431.57763672 243.55273438 C435.15644465 245.85381914 437.43636424 248.14507074 440.01513672 251.55273438 C442.54711964 253.30564563 444.7958313 254.47623249 447.70263672 255.49023438 C450.53586699 256.79198882 450.75958134 257.79051253 452.01513672 260.55273438 C454.11973637 262.43961682 455.86348513 263.49586503 458.51513672 264.49023438 C461.41070986 265.72085296 462.99625533 267.15998606 465.01513672 269.55273438 C465.01513672 270.21273438 465.01513672 270.87273437 465.01513672 271.55273438 C465.61326172 271.65585937 466.21138672 271.75898437 466.82763672 271.86523438 C469.01513672 272.55273438 469.01513672 272.55273438 470.32763672 273.92773438 C472.35497304 275.87998416 474.508208 276.58429329 477.08544922 277.62695312 C479.87695989 278.96620015 482.13082245 280.82540455 484.55419922 282.73632812 C488.33319458 285.5255866 492.33952037 287.95983717 496.35522461 290.39306641 C500.90647864 293.22676014 500.90647864 293.22676014 502.01513672 296.55273438 C502.94326172 296.86210938 503.87138672 297.17148437 504.82763672 297.49023438 C508.01513672 298.55273438 508.01513672 298.55273438 509.76513672 300.36523438 C512.68738687 303.20631091 515.90495121 304.59906581 519.57763672 306.30664062 C521.96146362 307.52529572 523.90317858 308.91822502 526.01513672 310.55273438 C531.63370537 314.27768344 537.05559203 314.94262841 543.64013672 314.99023438 C544.35645264 315.00014404 545.07276855 315.01005371 545.81079102 315.02026367 C550.87415866 314.93915176 554.52225442 313.91467378 559.01513672 311.55273438 C559.34513672 310.89273437 559.67513672 310.23273438 560.01513672 309.55273438 C560.67513672 309.55273438 561.33513672 309.55273438 562.01513672 309.55273438 C562.28326172 308.91335938 562.55138672 308.27398438 562.82763672 307.61523438 C564.01513672 305.55273438 564.01513672 305.55273438 567.01513672 304.55273438 C567.71883247 303.23856752 568.37708194 301.89999393 569.01513672 300.55273438 C570.44980024 298.63892647 571.91099338 296.74487666 573.39013672 294.86523438 C577.12381395 289.98011829 579.91828536 285.3305213 582.01513672 279.55273438 C582.42376953 278.48152344 582.83240234 277.4103125 583.25341797 276.30664062 C587.44892137 265.0072465 590.00441326 253.95950427 591.7434082 242.07617188 C593.13098466 233.0519853 595.52925503 224.32701243 598.01513672 215.55273438 C598.67513672 215.55273438 599.33513672 215.55273438 600.01513672 215.55273438 C600.00353516 214.81667969 599.99193359 214.080625 599.97998047 213.32226562 C599.96644531 211.85853516 599.96644531 211.85853516 599.95263672 210.36523438 C599.94103516 209.40230469 599.92943359 208.439375 599.91748047 207.44726562 C600.0102705 204.69696924 600.39401986 202.22793846 601.01513672 199.55273438 C601.67513672 199.55273438 602.33513672 199.55273438 603.01513672 199.55273438 C603.01513672 197.57273437 603.01513672 195.59273437 603.01513672 193.55273438 C603.67513672 193.55273438 604.33513672 193.55273438 605.01513672 193.55273438 C605.15177734 192.57433594 605.28841797 191.5959375 605.42919922 190.58789062 C606.03261374 186.37986829 606.68945845 182.18312297 607.39013672 177.99023438 C607.50357422 177.26126953 607.61701172 176.53230469 607.73388672 175.78125 C608.50631174 171.21654684 609.77623147 167.65938945 612.01513672 163.55273438 C612.34513672 162.45960938 612.67513672 161.36648438 613.01513672 160.24023438 C613.34513672 159.35335937 613.67513672 158.46648437 614.01513672 157.55273438 C615.00513672 157.22273437 615.99513672 156.89273438 617.01513672 156.55273438 C617.78529268 154.51343431 617.78529268 154.51343431 618.14013672 152.11523438 C618.95184558 147.67931665 618.95184558 147.67931665 620.01513672 145.55273438 C620.67513672 145.55273438 621.33513672 145.55273438 622.01513672 145.55273438 C622.13115234 145.01519531 622.24716797 144.47765625 622.36669922 143.92382812 C623.15452041 141.04306027 624.24271624 138.37252056 625.39013672 135.61523438 C625.81037109 134.59558594 626.23060547 133.5759375 626.66357422 132.52539062 C629.92946833 125.34231139 629.92946833 125.34231139 633.07763672 123.05273438 C635.19145545 121.68243147 635.19145545 121.68243147 635.90576172 119.25976562 C637.91522786 114.35638522 641.63396805 110.5796758 645.01513672 106.55273438 C645.67900391 105.75222656 646.34287109 104.95171875 647.02685547 104.12695312 C650.54179877 99.97828839 650.54179877 99.97828839 652.01513672 98.55273438 C652.67513672 98.55273438 653.33513672 98.55273438 654.01513672 98.55273438 C654.01513672 97.89273438 654.01513672 97.23273438 654.01513672 96.55273438 C654.67513672 96.55273438 655.33513672 96.55273438 656.01513672 96.55273438 C656.01513672 95.89273438 656.01513672 95.23273438 656.01513672 94.55273438 C656.67513672 94.55273438 657.33513672 94.55273438 658.01513672 94.55273438 C658.01513672 93.89273438 658.01513672 93.23273438 658.01513672 92.55273438 C658.67513672 92.55273438 659.33513672 92.55273438 660.01513672 92.55273438 C660.01513672 91.89273438 660.01513672 91.23273438 660.01513672 90.55273438 C661.58935547 89.11523438 661.58935547 89.11523438 663.70263672 87.55273438 C664.38712891 87.03710938 665.07162109 86.52148438 665.77685547 85.99023438 C668.01513672 84.55273438 668.01513672 84.55273438 670.42919922 83.60351562 C673.51707761 82.3487735 675.97113859 80.64754215 678.70263672 78.74023438 C696.71894107 66.55273438 696.71894107 66.55273438 706.01513672 66.55273438 C706.01513672 65.89273438 706.01513672 65.23273438 706.01513672 64.55273438 C706.81177734 64.37097656 707.60841797 64.18921875 708.42919922 64.00195312 C709.48880859 63.75058594 710.54841797 63.49921875 711.64013672 63.24023438 C713.20634766 62.87478516 713.20634766 62.87478516 714.80419922 62.50195312 C718.04335255 61.65372285 718.04335255 61.65372285 720.92919922 60.04882812 C724.4729975 58.33075883 727.9182685 57.58125639 731.76513672 56.92773438 C732.41740234 56.8065625 733.06966797 56.68539062 733.74169922 56.56054688 C743.68462389 54.78087942 753.48798276 54.39385753 763.57763672 54.42773438 C764.76421875 54.42386719 765.95080078 54.42 767.17333984 54.41601562 C768.29804687 54.41730469 769.42275391 54.41859375 770.58154297 54.41992188 C771.6019165 54.4210498 772.62229004 54.42217773 773.67358398 54.42333984 C776.01513672 54.55273438 776.01513672 54.55273438 777.01513672 55.55273438 C779.95284974 55.88214154 782.88383627 56.1659703 785.82763672 56.42773438 C796.57489136 57.48784453 806.06717567 59.37868531 815.84326172 64.11132812 C819.0359199 65.56217895 822.25634557 66.78429268 825.54443359 67.99633789 C834.27998586 71.23216538 842.57502375 74.83462635 850.01513672 80.55273438 C850.01513672 81.21273437 850.01513672 81.87273437 850.01513672 82.55273438 C851.66513672 83.21273437 853.31513672 83.87273437 855.01513672 84.55273438 C855.01513672 85.21273437 855.01513672 85.87273437 855.01513672 86.55273438 C855.67513672 86.63523437 856.33513672 86.71773437 857.01513672 86.80273438 C866.50954677 89.17633689 873.93816332 95.73350061 881.60107422 101.49804688 C897.36233935 113.18883512 911.57250532 122.72810159 931.64013672 122.74023438 C932.68298828 122.75248047 933.72583984 122.76472656 934.80029297 122.77734375 C945.66897673 122.84937573 945.66897673 122.84937573 955.88452148 119.55932617 C958.73567274 118.21232301 961.46956805 117.8311778 964.58154297 117.33398438 C965.87253906 117.12386719 967.16353516 116.91375 968.49365234 116.69726562 C969.85493948 116.48216235 971.21626788 116.26732 972.57763672 116.05273438 C975.22509289 115.62762359 977.8720235 115.19931201 980.51904297 114.77148438 C981.79875977 114.56652344 983.07847656 114.3615625 984.39697266 114.15039062 C987.56686988 113.62678007 990.72189117 113.05685336 993.87841797 112.45898438 C999.56303776 111.40688342 1005.25344125 110.85451912 1011.00732422 110.34179688 C1015.75640033 109.88575976 1020.29546899 109.13714121 1024.93041992 107.99780273 C1027.14953613 107.5240413 1029.31706113 107.29503838 1031.57763672 107.11523438 C1035.27945128 106.76540654 1038.1885978 105.68537538 1041.62841797 104.24804688 C1045.99421147 102.97617905 1050.51729539 102.9669842 1055.03857422 102.76367188 C1057.9420499 102.74880645 1057.9420499 102.74880645 1060.01513672 101.55273438 C1061.58491874 101.2882111 1063.1621198 101.06692089 1064.74169922 100.86914062 C1065.69173828 100.74603516 1066.64177734 100.62292969 1067.62060547 100.49609375 C1069.61007107 100.24515857 1071.59965204 99.9951361 1073.58935547 99.74609375 C1074.54712891 99.62169922 1075.50490234 99.49730469 1076.49169922 99.36914062 C1077.35875488 99.26029541 1078.22581055 99.1514502 1079.11914062 99.03930664 C1082.17758281 98.57074332 1082.17758281 98.57074332 1085.75488281 97.56640625 C1090.36948645 96.38201418 1094.96500687 95.92910906 1099.70263672 95.51757812 C1100.60457764 95.43399551 1101.50651855 95.3504129 1102.43579102 95.26429749 C1105.29507317 95.00042251 1108.15502966 94.74499737 1111.01513672 94.49023438 C1113.87506146 94.23017536 1116.73481655 93.96834929 1119.59448242 93.70545959 C1121.3662709 93.54314786 1123.1382353 93.38274088 1124.91040039 93.22459412 C1126.13206909 93.11426598 1126.13206909 93.11426598 1127.37841797 93.00170898 C1128.08264893 92.93890244 1128.78687988 92.87609589 1129.51245117 92.81138611 C1131.59814977 92.59582984 1133.67772184 92.32199371 1135.75462341 92.03375244 C1140.11998404 91.48373431 1144.42454878 91.40490592 1148.82006836 91.4074707 C1149.66211319 91.40411209 1150.50415802 91.40075348 1151.37171936 91.39729309 C1154.13959255 91.38784384 1156.90740467 91.38584199 1159.67529297 91.38476562 C1161.62658207 91.38154525 1163.57787093 91.37818062 1165.52915955 91.37467957 C1169.62190305 91.36870067 1173.71462549 91.36683803 1177.80737305 91.36743164 C1181.96073809 91.36751245 1186.1139918 91.36064316 1190.26733398 91.34692383 C1232.6676571 91.20871174 1232.6676571 91.20871174 1250.97244263 93.33151245 C1255.61735822 93.83455261 1260.28608417 93.99925268 1264.95263672 94.17773438 C1265.85046875 94.21640625 1266.74830078 94.25507812 1267.67333984 94.29492188 C1269.78708482 94.38534947 1271.90108329 94.46983032 1274.01513672 94.55273438 C1274.34513672 96.86273437 1274.67513672 99.17273438 1275.01513672 101.55273438 C1270.66129463 104.73205162 1266.53443299 106.64983031 1261.32763672 108.11523438 C1260.59577148 108.32720459 1259.86390625 108.5391748 1259.10986328 108.75756836 C1252.75524317 110.51550079 1246.3661975 111.53977028 1239.8449707 112.45483398 C1233.93981044 113.31233896 1228.4744606 114.80864068 1222.81201172 116.71289062 C1219.58765421 117.68109854 1216.56569737 118.06617662 1213.21044922 118.18164062 C1210.56904548 118.62814126 1208.33990741 119.68166545 1205.90673828 120.77075195 C1202.80640381 122.05242094 1199.58118727 122.83427051 1196.32763672 123.61523438 C1195.63790771 123.78514893 1194.94817871 123.95506348 1194.23754883 124.13012695 C1188.92192999 125.40943764 1183.58822195 126.37868307 1178.17529297 127.15820312 C1176.04205801 127.33629451 1176.04205801 127.33629451 1175.01513672 128.55273438 C1172.68216239 128.59366375 1170.34808447 128.59515161 1168.01513672 128.55273438 C1168.01513672 129.21273437 1168.01513672 129.87273437 1168.01513672 130.55273438 C1166.92974609 130.74609375 1165.84435547 130.93945312 1164.72607422 131.13867188 C1163.28072003 131.40146354 1161.83540984 131.66449724 1160.39013672 131.92773438 C1159.67728516 132.0540625 1158.96443359 132.18039062 1158.22998047 132.31054688 C1155.02090852 132.89936742 1152.03028919 133.54758753 1148.93310547 134.59960938 C1145.58199764 135.69421488 1142.45875713 136.06643069 1138.95263672 136.42773438 C1132.14038585 137.19081747 1125.43383887 138.32311242 1118.70263672 139.61523438 C1117.78925537 139.78974121 1116.87587402 139.96424805 1115.93481445 140.14404297 C1112.53989704 140.80635683 1109.3009979 141.45744731 1106.01513672 142.55273438 C1103.36940104 142.87502776 1100.72916875 143.16340103 1098.07763672 143.42773438 C1091.2518139 144.14004864 1084.48216942 145.05105436 1077.70263672 146.11523438 C1070.142928 147.29627929 1062.66173988 148.14807837 1055.01513672 148.55273438 C1055.01513672 149.21273437 1055.01513672 149.87273437 1055.01513672 150.55273438 C1053.80083984 150.72289062 1052.58654297 150.89304687 1051.33544922 151.06835938 C1024.14311042 154.67666534 1024.14311042 154.67666534 997.22607422 159.84570312 C994.18701807 160.51488702 991.14149491 161.0552262 988.07373047 161.57397461 C977.12380754 163.45566796 963.49641292 166.07145818 955.45263672 174.11523438 C952.94580806 176.62206303 951.25227459 177.30768135 948.01513672 178.55273438 C946.66262175 179.86660606 945.32568295 181.19699689 944.01513672 182.55273438 C943.35513672 182.55273438 942.69513672 182.55273438 942.01513672 182.55273438 C942.01513672 183.21273437 942.01513672 183.87273437 942.01513672 184.55273438 C940.61064404 185.71743562 939.20293003 186.87843321 937.78076172 188.02148438 C934.49685832 190.8694714 931.79378939 194.22176755 929.01513672 197.55273438 C927.97873047 198.79216797 927.97873047 198.79216797 926.92138672 200.05664062 C905.31173354 224.89582768 905.31173354 224.89582768 890.01513672 253.55273438 C889.35513672 253.55273438 888.69513672 253.55273438 888.01513672 253.55273438 C887.76763672 254.25398437 887.52013672 254.95523437 887.26513672 255.67773438 C886.01513672 258.55273438 886.01513672 258.55273438 884.07763672 261.42773438 C881.91684355 264.70166341 880.50309975 267.92986787 879.01513672 271.55273438 C878.49951172 272.54273438 877.98388672 273.53273438 877.45263672 274.55273438 C875.92019348 277.50962386 875.92019348 277.50962386 875.17919922 280.72460938 C873.98398194 285.03623246 872.01450694 288.84866483 869.95263672 292.80273438 C867.20305662 298.05340999 867.20305662 298.05340999 865.01513672 303.55273438 C864.35513672 303.88273437 863.69513672 304.21273438 863.01513672 304.55273438 C862.17130115 306.65887233 862.17130115 306.65887233 861.51513672 309.17773438 C861.26119141 310.07492187 861.00724609 310.97210937 860.74560547 311.89648438 C860.50455078 312.77304687 860.26349609 313.64960937 860.01513672 314.55273438 C859.62045543 315.9280655 859.2248099 317.3031208 858.82763672 318.67773438 C858.42544922 320.10085938 858.42544922 320.10085938 858.01513672 321.55273438 C857.35513672 321.55273438 856.69513672 321.55273438 856.01513672 321.55273438 C855.72638672 322.43960937 855.43763672 323.32648438 855.14013672 324.24023438 C854.01513672 327.55273438 854.01513672 327.55273438 853.01513672 329.86523438 C851.85198382 332.99120779 851.21222574 336.09987398 850.57763672 339.36914062 C849.99339173 341.63714722 849.13183366 343.50080375 848.01513672 345.55273438 C847.02513672 345.55273438 846.03513672 345.55273438 845.01513672 345.55273438 C844.90685547 346.85726563 844.79857422 348.16179687 844.68701172 349.50585938 C844.14428738 354.3676068 842.85494566 358.69457094 841.26513672 363.30273438 C838.57186975 371.39804197 836.47906386 379.539065 834.66455078 387.87402344 C834.3817627 389.14004395 834.3817627 389.14004395 834.09326172 390.43164062 C833.93245117 391.18002197 833.77164062 391.92840332 833.60595703 392.69946289 C833.01513672 394.55273438 833.01513672 394.55273438 831.01513672 396.55273438 C830.43785452 399.01772935 829.9443703 401.43723625 829.51513672 403.92773438 C828.78460814 408.11823897 827.92909402 411.7398903 826.01513672 415.55273438 C825.50129112 417.95820936 825.05078242 420.37750916 824.64013672 422.80273438 C823.54138573 429.04107981 822.16419324 435.12137597 820.57080078 441.25317383 C818.74495232 448.39919691 817.34903801 455.62280874 815.94482422 462.86132812 C814.49865141 470.26340926 812.77647481 477.59551357 811.01513672 484.92773438 C809.63581028 490.67756058 808.43543952 496.39599104 807.60498047 502.25585938 C807.01513672 504.55273437 807.01513672 504.55273437 805.54248047 506.83447266 C803.87502822 509.80208988 803.4156436 511.98061975 802.98779297 515.34179688 C802.83503906 516.44910156 802.68228516 517.55640625 802.52490234 518.69726562 C802.22975166 520.99402773 801.93546255 523.29090074 801.64208984 525.58789062 C800.73342407 532.16526214 799.38546257 538.02016339 796.87255859 544.17724609 C795.7822107 547.19805617 795.52868642 550.02884575 795.29248047 553.20898438 C793.94141271 564.62645838 793.94141271 564.62645838 791.01513672 567.55273438 C790.64525122 569.37904403 790.31840208 571.21418812 790.01513672 573.05273438 C789.12624783 578.44162326 789.12624783 578.44162326 788.01513672 579.55273438 C787.64311192 581.14837198 787.31693873 582.75483773 787.01513672 584.36523438 C786.43083759 587.455629 785.80973799 590.5091277 785.01513672 593.55273438 C784.35513672 593.55273438 783.69513672 593.55273438 783.01513672 593.55273438 C782.90298828 594.3596875 782.79083984 595.16664063 782.67529297 595.99804688 C781.88643901 600.24572206 780.70246227 604.29665831 779.45263672 608.42773438 C779.21867187 609.21148438 778.98470703 609.99523438 778.74365234 610.80273438 C778.17070134 612.72036632 777.59336481 614.63668703 777.01513672 616.55273438 C776.35513672 616.55273438 775.69513672 616.55273438 775.01513672 616.55273438 C774.89138672 617.43960938 774.76763672 618.32648437 774.64013672 619.24023438 C774.06332165 622.29735426 773.17557494 624.68576935 772.01513672 627.55273438 C771.61294922 629.28523438 771.61294922 629.28523438 771.20263672 631.05273438 C769.43805241 638.44987179 766.54497369 645.81989719 763.01513672 652.55273438 C762.35513672 652.55273438 761.69513672 652.55273438 761.01513672 652.55273438 C760.89138672 653.06835938 760.76763672 653.58398438 760.64013672 654.11523438 C759.82872043 657.27975788 758.92054542 660.41398422 758.01513672 663.55273438 C757.35513672 663.55273438 756.69513672 663.55273438 756.01513672 663.55273438 C756.01513672 664.87273438 756.01513672 666.19273437 756.01513672 667.55273438 C755.35513672 667.55273438 754.69513672 667.55273438 754.01513672 667.55273438 C753.68513672 669.53273438 753.35513672 671.51273438 753.01513672 673.55273438 C752.35513672 673.55273438 751.69513672 673.55273438 751.01513672 673.55273438 C750.87076172 674.31585937 750.72638672 675.07898437 750.57763672 675.86523438 C750.01513672 678.55273437 750.01513672 678.55273437 749.01513672 681.55273438 C748.35513672 681.55273438 747.69513672 681.55273438 747.01513672 681.55273438 C746.76763672 682.37773438 746.52013672 683.20273438 746.26513672 684.05273438 C744.82808861 688.07646908 742.99159157 691.77252462 741.01513672 695.55273438 C739.69513672 695.55273438 738.37513672 695.55273438 737.01513672 695.55273438 C736.91201172 696.25398438 736.80888672 696.95523438 736.70263672 697.67773438 C735.52972085 702.58265528 733.53298147 706.03488962 730.01513672 709.55273438 C729.64388672 710.63554688 729.64388672 710.63554688 729.26513672 711.74023438 C727.08981357 716.63471147 723.1673788 720.45619739 719.35498047 724.16992188 C717.89931923 725.53335418 717.89931923 725.53335418 717.01513672 727.55273438 C716.35513672 727.55273438 715.69513672 727.55273438 715.01513672 727.55273438 C714.79599609 728.09027344 714.57685547 728.6278125 714.35107422 729.18164062 C712.55707832 732.36572106 710.13891512 734.85665345 707.64013672 737.49023438 C706.67244513 738.51873011 705.70627693 739.54866147 704.74169922 740.58007812 C704.27795898 741.07491699 703.81421875 741.56975586 703.33642578 742.07958984 C702.08673399 743.47290845 700.93361752 744.95111972 699.78857422 746.43164062 C698.91072266 747.48158203 698.91072266 747.48158203 698.01513672 748.55273438 C697.35513672 748.55273438 696.69513672 748.55273438 696.01513672 748.55273438 C695.64666626 749.68775391 695.64666626 749.68775391 695.27075195 750.84570312 C693.85595723 753.89591583 692.64218392 754.94455541 689.92529297 756.86523438 C685.08760328 760.44196994 680.78363367 764.38539722 676.45263672 768.55273438 C670.06605733 774.66418156 663.5911914 780.62009121 656.76513672 786.24023438 C654.02117374 788.46962 654.02117374 788.46962 651.76513672 790.86523438 C650.01513672 792.55273438 650.01513672 792.55273438 648.01513672 792.55273438 C647.76763672 793.17148438 647.52013672 793.79023437 647.26513672 794.42773438 C645.80885033 796.90342124 644.63701166 797.5039844 642.01513672 798.55273438 C642.01513672 799.21273437 642.01513672 799.87273438 642.01513672 800.55273438 C640.33544922 802.27929687 640.33544922 802.27929687 638.14013672 804.17773438 C637.06119141 805.12519531 637.06119141 805.12519531 635.96044922 806.09179688 C634.01513672 807.55273438 634.01513672 807.55273438 632.01513672 807.55273438 C632.01513672 808.21273437 632.01513672 808.87273438 632.01513672 809.55273438 C630.37060547 811.17382813 630.37060547 811.17382813 628.20263672 812.99023438 C625.19050406 815.52612769 625.19050406 815.52612769 622.37841797 818.27539062 C621.01513672 819.55273438 621.01513672 819.55273438 619.01513672 819.55273438 C618.75732422 820.14570312 618.49951172 820.73867187 618.23388672 821.34960938 C616.91743776 823.72934402 615.5893289 825.06252229 613.51513672 826.80273438 C612.90669922 827.32351563 612.29826172 827.84429688 611.67138672 828.38085938 C610.01513672 829.55273438 610.01513672 829.55273438 608.01513672 829.55273438 C607.74958984 830.14441406 607.48404297 830.73609375 607.21044922 831.34570312 C602.20904304 840.58032565 590.80060749 847.74376153 582.81201172 854.22070312 C580.09386417 856.48709151 577.48919045 858.83893473 574.89013672 861.24023438 C569.52269255 866.114316 563.97814962 870.46752922 557.20263672 873.17773438 C553.97787246 874.3361773 553.97787246 874.3361773 551.95263672 876.61523438 C549.52643611 879.04143499 547.23992802 879.47780394 544.01513672 880.55273438 C543.02513672 881.57367187 543.02513672 881.57367187 542.01513672 882.61523438 C539.45653638 885.09387845 537.4962481 885.2362697 534.01513672 885.55273438 C534.01513672 886.21273437 534.01513672 886.87273438 534.01513672 887.55273438 C516.15864469 894.25660681 516.15864469 894.25660681 508.01513672 894.55273438 C508.01513672 895.21273437 508.01513672 895.87273438 508.01513672 896.55273438 C493.02338524 901.47600135 478.2573743 905.53071278 462.50341797 906.96289062 C458.80354488 907.58851306 456.3371345 908.85330621 453.01513672 910.55273438 C450.36483332 911.22421766 447.75242739 911.82303048 445.07763672 912.36523438 C437.78449277 913.9468992 431.21633221 916.32482785 424.35498047 919.22460938 C420.25970091 920.8531416 416.34655065 921.79283719 412.01513672 922.55273438 C412.01513672 923.21273437 412.01513672 923.87273438 412.01513672 924.55273438 C410.03513672 924.88273437 408.05513672 925.21273437 406.01513672 925.55273438 C406.01513672 926.21273437 406.01513672 926.87273438 406.01513672 927.55273438 C403.04513672 927.88273437 400.07513672 928.21273437 397.01513672 928.55273438 C397.01513672 929.21273437 397.01513672 929.87273438 397.01513672 930.55273438 C396.31388672 930.77960937 395.61263672 931.00648438 394.89013672 931.24023438 C391.86606403 932.45217394 391.86606403 932.45217394 389.32763672 934.92773438 C385.3711291 938.40904787 379.37236527 941.55273438 374.01513672 941.55273438 C373.82951172 942.15085937 373.64388672 942.74898437 373.45263672 943.36523438 C371.31645911 946.61593944 368.59715583 947.21706623 365.01513672 948.55273438 C364.04576172 948.94460938 363.07638672 949.33648438 362.07763672 949.74023438 C361.39701172 950.00835938 360.71638672 950.27648438 360.01513672 950.55273438 C360.01513672 951.21273437 360.01513672 951.87273438 360.01513672 952.55273438 C358.60986328 953.81787109 358.60986328 953.81787109 356.65576172 955.23242188 C355.95193359 955.74933594 355.24810547 956.26625 354.52294922 956.79882812 C353.77787109 957.33636719 353.03279297 957.87390625 352.26513672 958.42773438 C347.88551299 961.60799118 343.83932078 964.70998632 340.01513672 968.55273438 C339.35513672 968.55273438 338.69513672 968.55273438 338.01513672 968.55273438 C338.01513672 969.21273437 338.01513672 969.87273438 338.01513672 970.55273438 C336.65185547 971.89257812 336.65185547 971.89257812 334.70263672 973.49023438 C329.15595608 978.19800424 324.12068759 983.37849896 319.01513672 988.55273438 C318.12310547 989.42542969 317.23107422 990.298125 316.31201172 991.19726562 C313.79295507 993.78058393 311.99827645 996.54603865 310.01513672 999.55273438 C309.43119141 1000.12636719 308.84724609 1000.7 308.24560547 1001.29101562 C305.35453089 1004.22259563 302.90178485 1007.42065057 300.39013672 1010.67773438 C295.25500158 1017.31286951 295.25500158 1017.31286951 293.01513672 1019.55273438 C292.70294189 1020.33350342 292.39074707 1021.11427246 292.0690918 1021.91870117 C291.02214373 1024.53522252 289.82516815 1026.44211783 288.15185547 1028.69726562 C287.59433594 1029.45716797 287.03681641 1030.21707031 286.46240234 1031 C285.88167969 1031.78052734 285.30095703 1032.56105469 284.70263672 1033.36523438 C280.97008088 1038.40820053 277.35900396 1043.42635516 274.16674805 1048.83276367 C273.01513672 1050.55273438 273.01513672 1050.55273438 271.4987793 1052.06176758 C269.93940117 1053.6288438 269.03559316 1055.07184836 268.00732422 1057.02148438 C267.66056641 1057.67503906 267.31380859 1058.32859375 266.95654297 1059.00195312 C266.60462891 1059.67871094 266.25271484 1060.35546875 265.89013672 1061.05273438 C265.35066406 1062.06787109 265.35066406 1062.06787109 264.80029297 1063.10351562 C263.33264148 1065.89040441 262.0128335 1068.55964402 261.01513672 1071.55273438 C260.02513672 1071.88273437 259.03513672 1072.21273438 258.01513672 1072.55273438 C256.97758554 1074.5335139 255.98517793 1076.53803339 255.01513672 1078.55273438 C253.75631279 1080.35549457 252.44748899 1082.10369781 251.10107422 1083.84179688 C249.90462748 1085.72684605 249.44335274 1087.37359064 249.01513672 1089.55273438 C248.35513672 1089.55273438 247.69513672 1089.55273438 247.01513672 1089.55273438 C246.87011719 1090.67035156 246.87011719 1090.67035156 246.72216797 1091.81054688 C245.9207831 1094.91868045 244.91373137 1096.14561955 242.70263672 1098.42773438 C239.93863852 1101.29365875 238.0997015 1104.1808521 236.17797852 1107.66162109 C234.03384036 1111.14860286 231.29067418 1114.12672996 228.57763672 1117.17773438 C228.01753906 1117.8196875 227.45744141 1118.46164062 226.88037109 1119.12304688 C221.94321354 1124.74576073 216.7668813 1129.75961389 211.01513672 1134.55273438 C210.19013672 1135.46023438 209.36513672 1136.36773438 208.51513672 1137.30273438 C205.62705424 1139.90200861 203.83449731 1140.28626736 200.01513672 1140.55273438 C200.01513672 1141.21273438 200.01513672 1141.87273437 200.01513672 1142.55273438 C194.13081613 1145.60386357 188.19898877 1148.17495399 182.01513672 1150.55273438 C180.7104029 1151.06954453 179.4057189 1151.58648049 178.10107422 1152.10351562 C176.69770959 1152.64981147 175.29406297 1153.19538348 173.89013672 1153.74023438 C173.23335937 1154.00239746 172.57658203 1154.26456055 171.89990234 1154.53466797 C167.24763661 1156.31586761 162.96397977 1157.01669995 158.01513672 1157.55273438 C157.68513672 1157.88273437 157.35513672 1158.21273438 157.01513672 1158.55273438 C154.47561399 1159.0707023 151.94276877 1159.54659511 149.39013672 1159.99023438 C145.27213598 1160.70690301 141.28870969 1161.47314432 137.26904297 1162.64257812 C133.2734139 1163.76020306 130.13254762 1163.69720493 126.01513672 1163.55273438 C126.01513672 1164.21273438 126.01513672 1164.87273437 126.01513672 1165.55273438 C125.40105957 1165.67801514 124.78698242 1165.8032959 124.15429688 1165.93237305 C121.3130562 1166.52062992 118.47679901 1167.13029736 115.64013672 1167.74023438 C114.67462891 1167.93681641 113.70912109 1168.13339844 112.71435547 1168.3359375 C106.72086446 1169.64324259 101.60568125 1171.47160513 96.20898438 1174.39916992 C94.09340055 1175.51158185 92.01196033 1176.36933242 89.76513672 1177.17773438 C86.02009361 1178.47152875 86.02009361 1178.47152875 82.64013672 1180.24023438 C80.01513672 1181.55273438 80.01513672 1181.55273438 78.01513672 1181.55273438 C78.01513672 1182.21273438 78.01513672 1182.87273437 78.01513672 1183.55273438 C75.34677719 1185.5384903 72.86218233 1187.24340373 69.72607422 1188.38867188 C66.26517034 1189.87476605 63.3602247 1191.97970911 60.32763672 1194.17773438 C54.28181617 1198.55273438 54.28181617 1198.55273438 52.01513672 1198.55273438 C52.01513672 1199.21273438 52.01513672 1199.87273437 52.01513672 1200.55273438 C50.0218283 1201.89605092 48.02128806 1203.22867449 46.01513672 1204.55273438 C45.35513672 1205.54273438 44.69513672 1206.53273438 44.01513672 1207.55273438 C41.06671869 1209.25626479 38.6384407 1210.45357238 35.26513672 1210.99023438 C34.52263672 1211.17585938 33.78013672 1211.36148437 33.01513672 1211.55273438 C31.83183489 1213.41918344 31.83183489 1213.41918344 31.01513672 1215.55273438 C28.51960426 1218.92170319 26.01943014 1218.94338538 22.01513672 1219.55273438 C21.68513672 1220.21273438 21.35513672 1220.87273437 21.01513672 1221.55273438 C16.21229915 1223.15368023 11.48747542 1223.78670021 6.82373047 1221.45898438 C2.18445203 1218.14898686 -1.00868477 1214.38902446 -3.98486328 1209.55273438 C-3.98486328 1208.89273437 -3.98486328 1208.23273438 -3.98486328 1207.55273438 C-4.64486328 1207.55273438 -5.30486328 1207.55273438 -5.98486328 1207.55273438 C-7.00607553 1198.83460755 -4.40352641 1193.8841081 0.01513672 1186.55273438 C1.57179405 1183.7799822 3.08059479 1180.98305536 4.57763672 1178.17773438 C4.96935059 1177.44643311 5.36106445 1176.71513184 5.76464844 1175.96166992 C8.02822976 1171.6604832 9.9346676 1167.38750631 11.57763672 1162.80273438 C14.13044557 1155.75380197 17.87999877 1149.76384605 22.01513672 1143.55273438 C22.50498047 1142.81667969 22.99482422 1142.080625 23.49951172 1141.32226562 C25.74636583 1138.06987495 28.22951648 1135.33835461 31.01513672 1132.55273438 C31.34513672 1131.56273437 31.67513672 1130.57273437 32.01513672 1129.55273438 C32.67513672 1129.55273438 33.33513672 1129.55273438 34.01513672 1129.55273438 C34.17381226 1128.45892456 34.17381226 1128.45892456 34.33569336 1127.34301758 C35.07272729 1124.31622607 36.13385594 1122.46961334 37.88623047 1119.90820312 C38.46050781 1119.06708984 39.03478516 1118.22597656 39.62646484 1117.359375 C40.22910156 1116.49505859 40.83173828 1115.63074219 41.45263672 1114.74023438 C42.05140625 1113.85658203 42.65017578 1112.97292969 43.26708984 1112.0625 C46.59672337 1107.2339721 46.59672337 1107.2339721 48.01513672 1105.55273438 C48.67513672 1105.55273438 49.33513672 1105.55273438 50.01513672 1105.55273438 C50.34513672 1104.23273438 50.67513672 1102.91273437 51.01513672 1101.55273438 C51.67513672 1101.55273438 52.33513672 1101.55273438 53.01513672 1101.55273438 C53.34513672 1100.56273437 53.67513672 1099.57273437 54.01513672 1098.55273438 C55.19076172 1097.40804688 55.19076172 1097.40804688 56.39013672 1096.24023438 C59.14200658 1093.69618954 59.14200658 1093.69618954 60.57763672 1090.42773438 C62.10513987 1087.37272807 63.34809513 1086.53150716 66.01513672 1084.55273438 C66.45019531 1083.42158203 66.45019531 1083.42158203 66.89404297 1082.26757812 C68.1558301 1079.21203088 69.75841615 1077.19557792 71.89013672 1074.67773438 C75.09240931 1070.78842875 77.68816756 1067.01275859 80.01513672 1062.55273438 C80.67513672 1062.55273438 81.33513672 1062.55273438 82.01513672 1062.55273438 C82.26779297 1061.98941406 82.52044922 1061.42609375 82.78076172 1060.84570312 C84.18735982 1058.23281361 85.86896208 1056.14725851 87.76513672 1053.86523438 C90.45673158 1050.57009925 92.9187447 1047.26670755 95.20263672 1043.67773438 C97.42078309 1040.22930464 99.75736616 1038.06587166 103.01513672 1035.55273438 C103.88479178 1033.42326835 103.88479178 1033.42326835 104.01513672 1031.55273438 C104.67513672 1031.55273438 105.33513672 1031.55273438 106.01513672 1031.55273438 C106.38638672 1030.46992188 106.38638672 1030.46992188 106.76513672 1029.36523438 C108.627971 1025.17385724 111.2705898 1022.26096193 114.57763672 1019.11523438 C117.17725235 1016.38230513 118.33691826 1013.91326451 120.01513672 1010.55273438 C121.32564206 1008.56491835 122.6801925 1006.60542378 124.07763672 1004.67773438 C124.76986328 1003.7109375 125.46208984 1002.74414062 126.17529297 1001.74804688 C127.08601562 1000.66136719 127.08601562 1000.66136719 128.01513672 999.55273438 C128.67513672 999.55273438 129.33513672 999.55273438 130.01513672 999.55273438 C130.30388672 998.74835937 130.59263672 997.94398438 130.89013672 997.11523438 C132.01513672 994.55273438 132.01513672 994.55273438 134.01513672 993.55273438 C134.88632642 992.0194405 135.75349752 990.48377771 136.60498047 988.93945312 C138.49300619 985.74393037 140.54860422 982.68031802 142.64013672 979.61523438 C143.036604 979.02323242 143.43307129 978.43123047 143.84155273 977.82128906 C144.84684906 976.3608246 145.92559264 974.9514734 147.01513672 973.55273438 C147.67513672 973.55273438 148.33513672 973.55273438 149.01513672 973.55273438 C149.27294922 972.84761719 149.53076172 972.1425 149.79638672 971.41601562 C151.11843858 968.31004122 152.71261526 965.59295372 154.51513672 962.74023438 C155.12357422 961.76441406 155.73201172 960.78859375 156.35888672 959.78320312 C157.17873047 958.67912109 157.17873047 958.67912109 158.01513672 957.55273438 C158.67513672 957.55273438 159.33513672 957.55273438 160.01513672 957.55273438 C160.34513672 956.56273437 160.67513672 955.57273437 161.01513672 954.55273438 C161.67513672 954.22273438 162.33513672 953.89273438 163.01513672 953.55273438 C163.69576172 952.16054687 163.69576172 952.16054687 164.39013672 950.74023438 C165.97799825 947.62558292 167.58088586 945.98698523 170.01513672 943.55273438 C170.68323704 941.88664188 171.34974025 940.21990856 172.01513672 938.55273438 C172.9329204 937.06854705 173.89255072 935.60950288 174.89013672 934.17773438 C176.75050589 931.45491251 178.53151338 928.74415948 180.14013672 925.86523438 C181.96114445 922.64812072 183.93343428 919.60589795 186.01513672 916.55273438 C186.67513672 915.56273437 187.33513672 914.57273437 188.01513672 913.55273438 C188.67513672 913.55273438 189.33513672 913.55273438 190.01513672 913.55273438 C190.67513672 911.24273438 191.33513672 908.93273438 192.01513672 906.55273438 C193.33513672 906.22273438 194.65513672 905.89273438 196.01513672 905.55273438 C196.12083984 905.00230469 196.22654297 904.451875 196.33544922 903.88476562 C197.15732357 901.0648864 198.43870696 898.79287328 199.89013672 896.24023438 C202.20928672 892.08137403 204.24780356 887.97106726 206.01513672 883.55273438 C206.67513672 883.55273438 207.33513672 883.55273438 208.01513672 883.55273438 C208.13888672 882.62460938 208.26263672 881.69648437 208.39013672 880.74023438 C209.01513672 877.55273438 209.01513672 877.55273438 211.01513672 874.55273438 C211.67513672 874.55273438 212.33513672 874.55273438 213.01513672 874.55273438 C213.13888672 873.74835937 213.26263672 872.94398438 213.39013672 872.11523438 C213.59638672 871.26960938 213.80263672 870.42398438 214.01513672 869.55273438 C214.67513672 869.22273438 215.33513672 868.89273438 216.01513672 868.55273438 C216.68084394 866.84631455 217.27391964 865.11121035 217.82763672 863.36523438 C219.10620692 859.65356416 220.02066186 857.54613115 222.57763672 854.49023438 C225.85266052 850.54341083 226.81935656 846.47196006 228.01513672 841.55273438 C228.67513672 841.55273438 229.33513672 841.55273438 230.01513672 841.55273438 C229.95712891 840.82828125 229.89912109 840.10382812 229.83935547 839.35742188 C230.04912157 836.01048715 230.99910023 834.46280454 232.82763672 831.67773438 C235.33462795 827.7187033 237.30978823 823.91084719 239.01513672 819.55273438 C239.67513672 819.55273438 240.33513672 819.55273438 241.01513672 819.55273438 C241.11310547 818.946875 241.21107422 818.34101562 241.31201172 817.71679688 C242.78068857 809.48714213 245.49915792 802.33773742 249.45263672 794.99023438 C252.10036265 789.84909783 253.63982767 784.52910253 255.13989258 778.96850586 C256.43809153 774.22149402 258.09661286 769.74214464 259.96459961 765.19042969 C261.8005351 760.58075107 263.35609 755.87447457 264.95263672 751.17773438 C267.43122159 743.94828772 269.97699314 736.83442411 273.10498047 729.85742188 C274.06111647 727.43630496 274.58201574 725.1149869 275.01513672 722.55273438 C275.67513672 722.55273438 276.33513672 722.55273438 277.01513672 722.55273438 C277.12212891 721.88113281 277.22912109 721.20953125 277.33935547 720.51757812 C278.16320938 716.90309765 279.4495512 713.54506012 280.82763672 710.11523438 C281.07578125 709.47263672 281.32392578 708.83003906 281.57958984 708.16796875 C283.27802476 703.91107716 285.40172927 700.34190796 288.01513672 696.55273438 C289.05567421 694.51818876 289.05567421 694.51818876 289.76513672 692.67773438 C290.38388672 691.13085938 290.38388672 691.13085938 291.01513672 689.55273438 C291.67513672 689.55273438 292.33513672 689.55273438 293.01513672 689.55273438 C293.11181641 688.83988281 293.20849609 688.12703125 293.30810547 687.39257812 C294.12624299 684.10646774 295.46071783 681.93360229 297.32763672 679.11523438 C297.96056641 678.15488281 298.59349609 677.19453125 299.24560547 676.20507812 C299.82955078 675.32980469 300.41349609 674.45453125 301.01513672 673.55273438 C301.71638672 672.43898438 302.41763672 671.32523438 303.14013672 670.17773438 C305.01513672 667.55273438 305.01513672 667.55273438 307.51513672 665.11523438 C309.84130465 662.73091224 311.10309803 660.55279463 312.65185547 657.64648438 C315.16576387 653.78558207 318.4308116 650.54947056 321.57763672 647.20117188 C324.05297919 644.58852014 324.05297919 644.58852014 326.20263672 641.71679688 C326.80076172 641.00265625 327.39888672 640.28851562 328.01513672 639.55273438 C328.67513672 639.55273438 329.33513672 639.55273438 330.01513672 639.55273438 C330.24587891 639.01519531 330.47662109 638.47765625 330.71435547 637.92382812 C332.40047277 634.85033502 334.57125599 632.27703255 336.82763672 629.61523438 C337.25367188 629.10283203 337.67970703 628.59042969 338.11865234 628.0625 C340.20086024 625.58338107 342.31477594 623.26812131 344.66357422 621.03710938 C347.17381475 618.38509446 348.41541163 616.08922529 349.82763672 612.74023438 C350.45605469 611.27650391 350.45605469 611.27650391 351.09716797 609.78320312 C351.40009766 609.04714844 351.70302734 608.31109375 352.01513672 607.55273438 C352.67513672 607.55273438 353.33513672 607.55273438 354.01513672 607.55273438 C354.32451172 606.60398437 354.63388672 605.65523437 354.95263672 604.67773438 C356.01513672 601.55273438 356.01513672 601.55273438 357.01513672 599.55273438 C357.67513672 599.55273438 358.33513672 599.55273438 359.01513672 599.55273438 C359.13888672 598.74835937 359.26263672 597.94398438 359.39013672 597.11523438 C359.59638672 596.26960938 359.80263672 595.42398438 360.01513672 594.55273438 C360.67513672 594.22273438 361.33513672 593.89273438 362.01513672 593.55273438 C364.6146318 586.18749832 366.17388151 574.76888694 363.15185547 567.46679688 C361.98268668 565.7340183 361.98268668 565.7340183 360.01513672 563.55273438 C359.85013672 562.81023438 359.68513672 562.06773437 359.51513672 561.30273438 C359.35013672 560.72523438 359.18513672 560.14773438 359.01513672 559.55273438 C358.45181641 559.27300781 357.88849609 558.99328125 357.30810547 558.70507812 C354.45529389 557.27138235 352.27382064 555.41607544 349.82763672 553.36523438 C348.86341797 552.56730469 347.89919922 551.769375 346.90576172 550.94726562 C345.47490234 549.76197266 345.47490234 549.76197266 344.01513672 548.55273438 C342.37699879 547.20995768 340.73189853 545.87559605 339.07763672 544.55273438 C338.38798828 543.99585938 337.69833984 543.43898438 336.98779297 542.86523438 C334.97022495 541.52285248 333.38460867 540.97680094 331.01513672 540.55273438 C331.01513672 539.89273438 331.01513672 539.23273437 331.01513672 538.55273438 C329.03513672 538.22273438 327.05513672 537.89273438 325.01513672 537.55273438 C325.01513672 536.89273438 325.01513672 536.23273437 325.01513672 535.55273438 C324.35513672 535.55273438 323.69513672 535.55273438 323.01513672 535.55273438 C323.01513672 534.89273438 323.01513672 534.23273437 323.01513672 533.55273438 C322.21076172 533.47023438 321.40638672 533.38773438 320.57763672 533.30273438 C316.75190995 532.49731821 313.66345091 531.11723559 310.14013672 529.47460938 C307.79359107 528.45662266 305.55158751 527.88001835 303.01513672 527.55273438 C303.01513672 526.89273438 303.01513672 526.23273437 303.01513672 525.55273438 C302.21076172 525.42898438 301.40638672 525.30523438 300.57763672 525.17773438 C299.73201172 524.97148438 298.88638672 524.76523438 298.01513672 524.55273438 C297.68513672 523.89273438 297.35513672 523.23273437 297.01513672 522.55273438 C294.66489869 521.65472413 292.35095465 520.860615 289.95263672 520.11523438 C283.90403781 518.17086407 277.9544539 516.10505936 272.04248047 513.77539062 C271.37345703 513.51628906 270.70443359 513.2571875 270.01513672 512.99023438 C269.14888672 512.64798828 269.14888672 512.64798828 268.26513672 512.29882812 C266.28797922 511.64320819 264.26569321 511.12714512 262.24169922 510.63476562 C258.16837203 509.63714885 254.302477 508.30325043 250.39013672 506.80273438 C249.69919922 506.54105469 249.00826172 506.279375 248.29638672 506.00976562 C242.66379166 503.85369902 237.13758884 501.47765617 231.60888672 499.06835938 C223.22505023 495.53256746 214.66202822 492.38165567 206.01513672 489.55273438 C206.01513672 488.89273437 206.01513672 488.23273438 206.01513672 487.55273438 C205.16435547 487.62105469 204.31357422 487.689375 203.43701172 487.75976562 C199.29174351 487.50896743 196.89779101 486.22504435 193.26513672 484.24023438 C188.39522427 481.66230942 183.70288189 479.64767304 178.37451172 478.22851562 C174.9785349 477.2558269 171.78179031 475.871172 168.52294922 474.51757812 C166.00344801 473.54823732 163.49468126 472.82013405 160.89013672 472.11523438 C156.66876453 470.91386902 153.38665483 469.15401305 149.80419922 466.63867188 C147.88568248 465.47415735 146.20590502 464.98702765 144.01513672 464.55273438 C144.01513672 463.89273437 144.01513672 463.23273438 144.01513672 462.55273438 C143.00451172 462.47023438 141.99388672 462.38773438 140.95263672 462.30273438 C136.63726756 461.71267369 133.66775475 459.86357435 130.01513672 457.55273438 C130.01513672 456.89273437 130.01513672 456.23273438 130.01513672 455.55273438 C128.03513672 455.22273438 126.05513672 454.89273437 124.01513672 454.55273438 C124.01513672 453.89273437 124.01513672 453.23273438 124.01513672 452.55273438 C123.02513672 452.55273438 122.03513672 452.55273438 121.01513672 452.55273438 C120.68513672 451.89273437 120.35513672 451.23273438 120.01513672 450.55273438 C118.01152408 449.59380194 118.01152408 449.59380194 115.57763672 448.74023438 C111.94226157 447.34917333 108.47550298 445.83501494 105.01513672 444.05273438 C100.13650771 441.55146903 95.13562908 439.50287934 90.01513672 437.55273438 C90.01513672 436.56273437 90.01513672 435.57273437 90.01513672 434.55273438 C89.07154297 434.31490234 89.07154297 434.31490234 88.10888672 434.07226562 C82.22258277 432.4677159 76.73809124 430.55009532 72.01513672 426.55273438 C72.01513672 425.89273437 72.01513672 425.23273438 72.01513672 424.55273438 C71.45826172 424.39417969 70.90138672 424.235625 70.32763672 424.07226562 C65.29441593 422.53339238 61.17023045 420.63487469 56.83935547 417.63867188 C55.05591541 416.43584253 55.05591541 416.43584253 52.90966797 416.15429688 C51.01513672 415.55273438 51.01513672 415.55273438 50.00341797 413.65429688 C49.67728516 412.96078125 49.35115234 412.26726562 49.01513672 411.55273438 C45.09724313 408.42187901 40.67143984 406.34362019 36.01513672 404.55273438 C33.55599431 403.34159357 31.34228489 402.02957841 29.01513672 400.55273438 C28.68513672 399.56273437 28.35513672 398.57273437 28.01513672 397.55273438 C26.36075059 396.85615074 24.69259354 396.19176554 23.01513672 395.55273438 C21.99409121 394.57423243 20.99452462 393.57293011 20.01513672 392.55273438 C18.87044922 391.87210938 18.87044922 391.87210938 17.70263672 391.17773438 C13.49806906 388.63543765 9.95918794 385.54519848 6.57763672 381.99023438 C4.14011278 379.67161405 1.78730431 378.28988888 -1.16064453 376.71679688 C-3.94074209 374.94277317 -6.02855805 372.60068597 -8.28564453 370.21679688 C-10.11547925 368.31684323 -10.11547925 368.31684323 -13.23486328 366.42773438 C-15.98486328 364.55273438 -15.98486328 364.55273438 -17.33251953 362.20898438 C-19.24877401 359.12848073 -21.31956477 357.40686043 -24.17236328 355.17773438 C-25.6515625 353.99824219 -25.6515625 353.99824219 -27.16064453 352.79492188 C-28.55863281 351.68503906 -28.55863281 351.68503906 -29.98486328 350.55273438 C-35.1909357 346.27240715 -40.04633494 341.63985597 -44.85986328 336.92773438 C-45.4320459 336.37698242 -46.00422852 335.82623047 -46.59375 335.25878906 C-49.74651592 332.13147148 -51.35998156 329.72472798 -52.98486328 325.55273438 C-54.29784517 324.84683014 -55.6350558 324.18538118 -56.98486328 323.55273438 C-58.6843095 321.81183824 -60.32554206 320.01321763 -61.92236328 318.17773438 C-65.07851576 314.5581592 -68.21193635 311.51322027 -71.98486328 308.55273438 C-75.65181496 304.78078188 -78.92330048 300.67062616 -82.10986328 296.49023438 C-85.48890316 292.0951734 -89.05753749 287.87895184 -92.67236328 283.67773438 C-93.23133301 283.02281006 -93.79030273 282.36788574 -94.36621094 281.69311523 C-97.52798852 278.04190307 -97.52798852 278.04190307 -101.19189453 274.91992188 C-103.53159279 273.13583824 -104.5244127 271.09734598 -105.98486328 268.55273438 C-107.45187844 266.63126344 -108.95361004 264.73591541 -110.48486328 262.86523438 C-111.25830078 261.91261719 -112.03173828 260.96 -112.82861328 259.97851562 C-114.93401446 257.40365181 -114.93401446 257.40365181 -117.98486328 255.55273438 C-118.98486328 253.88606771 -119.98486328 252.21940104 -120.98486328 250.55273438 C-121.97486328 249.89273438 -122.96486328 249.23273438 -123.98486328 248.55273438 C-124.98486328 246.88606771 -125.98486328 245.21940104 -126.98486328 243.55273438 C-127.97486328 242.89273438 -128.96486328 242.23273438 -129.98486328 241.55273438 C-130.99769513 239.89383431 -131.99590831 238.22597848 -132.98486328 236.55273438 C-134.46549219 234.76858974 -135.9881562 233.01863277 -137.54736328 231.30273438 C-138.72492188 229.995625 -138.72492188 229.995625 -139.92626953 228.66210938 C-141.80578133 226.50570789 -141.80578133 226.50570789 -143.98486328 225.55273438 C-143.98486328 224.89273438 -143.98486328 224.23273438 -143.98486328 223.55273438 C-144.64486328 223.55273438 -145.30486328 223.55273438 -145.98486328 223.55273438 C-147.41773508 221.93555127 -148.78111077 220.25650066 -150.10986328 218.55273438 C-156.92795606 209.83189506 -156.92795606 209.83189506 -165.54736328 203.05273438 C-168.78166032 201.06239773 -170.84077614 198.43803724 -173.28173828 195.55664062 C-177.40603714 190.56573698 -177.40603714 190.56573698 -182.98486328 187.55273438 C-184.32909668 185.89484652 -185.66104811 184.2269712 -186.98486328 182.55273438 C-188.64756615 181.21446134 -190.3140251 179.88083652 -191.98486328 178.55273438 C-192.47986328 177.85148438 -192.97486328 177.15023437 -193.48486328 176.42773438 C-194.86386864 174.36905453 -194.86386864 174.36905453 -197.29345703 173.72070312 C-200.51653259 172.32200996 -202.17368927 170.56205856 -204.54736328 167.99023438 C-208.09553627 164.06858838 -208.09553627 164.06858838 -212.98486328 162.55273438 C-212.98486328 161.89273438 -212.98486328 161.23273438 -212.98486328 160.55273438 C-213.70029297 160.28460937 -214.41572266 160.01648438 -215.15283203 159.74023438 C-218.02615267 158.53542131 -220.61823954 157.14036326 -223.29736328 155.55273438 C-224.621875 154.77929688 -224.621875 154.77929688 -225.97314453 153.99023438 C-226.63701172 153.51585937 -227.30087891 153.04148437 -227.98486328 152.55273438 C-227.98486328 151.89273438 -227.98486328 151.23273438 -227.98486328 150.55273438 C-228.89236328 150.28460937 -229.79986328 150.01648438 -230.73486328 149.74023438 C-233.71478162 148.65141806 -235.67076688 147.68882336 -237.98486328 145.55273438 C-237.98486328 144.89273438 -237.98486328 144.23273438 -237.98486328 143.55273438 C-238.51595703 143.43027344 -239.04705078 143.3078125 -239.59423828 143.18164062 C-242.52213876 142.4113923 -245.36597335 141.45692555 -248.23486328 140.49023438 C-249.31251953 140.12800781 -250.39017578 139.76578125 -251.50048828 139.39257812 C-252.32033203 139.11542969 -253.14017578 138.83828125 -253.98486328 138.55273438 C-253.98486328 137.89273438 -253.98486328 137.23273438 -253.98486328 136.55273438 C-254.76861328 136.47023438 -255.55236328 136.38773438 -256.35986328 136.30273438 C-259.45071965 135.66324685 -261.74895604 134.85649897 -264.60986328 133.61523438 C-272.83775023 130.23592366 -281.16967327 129.5480673 -289.98486328 129.11523438 C-304.96145609 128.33734462 -316.74763789 124.40569991 -327.36767578 113.63867188 C-328.98486328 111.55273438 -328.98486328 111.55273438 -328.98486328 108.55273438 C-329.97486328 108.22273437 -330.96486328 107.89273438 -331.98486328 107.55273438 C-331.98486328 104.91273438 -331.98486328 102.27273438 -331.98486328 99.55273438 C-331.32486328 99.55273438 -330.66486328 99.55273438 -329.98486328 99.55273438 C-329.98486328 98.56273437 -329.98486328 97.57273437 -329.98486328 96.55273438 C-319.53793591 90.618726 -319.53793591 90.618726 -314.48486328 88.86523438 C-311.18294038 87.62701329 -310.26167054 86.97540951 -307.98486328 84.55273438 C-304.89896028 82.66137447 -303.81165598 82.55273438 -299.98486328 82.55273438 C-299.98486328 81.89273438 -299.98486328 81.23273438 -299.98486328 80.55273438 C-299.22302734 80.44316406 -298.46119141 80.33359375 -297.67626953 80.22070312 C-296.64373047 80.06214844 -295.61119141 79.90359375 -294.54736328 79.74023438 C-293.53802734 79.58941406 -292.52869141 79.43859375 -291.48876953 79.28320312 C-288.77966949 78.71842976 -286.52358301 78.05340018 -283.95385742 77.11132812 C-278.69038603 75.3420753 -273.48012354 74.53198679 -267.97705078 73.88476562 C-266.90558807 73.75842239 -265.83412537 73.63207916 -264.73019409 73.50190735 C-250.92874446 72.03607292 -237.10006362 72.14110105 -223.24145508 72.23016357 C-220.36982298 72.24373073 -217.49834519 72.23839062 -214.62669563 72.23303509 C-211.81599296 72.22967344 -209.00538327 72.23636128 -206.19469833 72.24616432 C-204.24570226 72.25176483 -202.29669038 72.25059581 -200.34768677 72.24919128 C-181.13577474 72.40182292 -181.13577474 72.40182292 -177.98486328 75.55273438 C-176.17861311 75.75744649 -174.36531275 75.90055694 -172.55126953 76.01757812 C-171.4265625 76.09556641 -170.30185547 76.17355469 -169.14306641 76.25390625 C-166.78119113 76.40914086 -164.41921399 76.56283492 -162.05712891 76.71484375 C-155.22357403 77.19160339 -148.65871023 77.99166185 -141.98486328 79.55273438 C-141.98486328 80.21273437 -141.98486328 80.87273437 -141.98486328 81.55273438 C-141.27668457 81.53025635 -140.56850586 81.50777832 -139.83886719 81.48461914 C-131.82981039 81.34329817 -124.25245368 82.18980186 -116.35986328 83.49023438 C-114.60609375 83.76383789 -114.60609375 83.76383789 -112.81689453 84.04296875 C-104.28596341 85.40218431 -104.28596341 85.40218431 -101.98486328 86.55273438 C-100.07114867 86.73321944 -98.15351001 86.87330193 -96.23486328 86.99023438 C-91.85531306 87.31659509 -88.0766243 87.84783395 -83.98486328 89.55273438 C-83.98486328 90.21273437 -83.98486328 90.87273437 -83.98486328 91.55273438 C-83.30423828 91.59011719 -82.62361328 91.6275 -81.92236328 91.66601562 C-75.1879078 92.12274066 -68.65635033 93.09360785 -62.04248047 94.39794922 C-57.7841514 95.23250118 -53.53929638 95.92306201 -49.23486328 96.49023438 C-43.3120085 97.30037198 -37.46939496 98.38007599 -31.60986328 99.55273438 C-30.77745117 99.71894287 -29.94503906 99.88515137 -29.08740234 100.05639648 C-24.01348265 101.08916368 -19.00104246 102.26904618 -13.98486328 103.55273438 C-12.87240234 103.82214844 -11.75994141 104.0915625 -10.61376953 104.36914062 C-9.60185547 104.61535156 -8.58994141 104.8615625 -7.54736328 105.11523438 C-6.51740234 105.36402344 -5.48744141 105.6128125 -4.42626953 105.86914062 C-1.98486328 106.55273438 -1.98486328 106.55273438 -0.98486328 107.55273438 C1.84665865 108.07323473 4.67130484 108.54767922 7.51513672 108.99023438 C17.42930549 110.57296477 17.42930549 110.57296477 22.26513672 111.74023438 C25.65964846 112.47571192 28.55911905 112.72996605 32.01513672 112.55273438 C32.01513672 108.92273438 32.01513672 105.29273438 32.01513672 101.55273438 C31.35513672 101.55273438 30.69513672 101.55273438 30.01513672 101.55273438 C29.36742164 99.6367028 28.72203724 97.71988324 28.07763672 95.80273438 C27.71798828 94.73539063 27.35833984 93.66804687 26.98779297 92.56835938 C26.23531553 90.23537712 25.56536428 87.93898443 25.01513672 85.55273438 C24.35513672 85.55273438 23.69513672 85.55273438 23.01513672 85.55273438 C22.69802734 84.88628906 22.38091797 84.21984375 22.05419922 83.53320312 C18.10716032 75.73725613 13.11868964 69.76268838 7.01513672 63.55273438 C6.20173828 62.70710937 5.38833984 61.86148438 4.55029297 60.99023438 C2.00128898 58.53942007 -0.6119734 56.4855628 -3.48486328 54.42773438 C-4.40267578 53.76515625 -5.32048828 53.10257813 -6.26611328 52.41992188 C-8.94780729 50.51062078 -8.94780729 50.51062078 -11.82861328 48.99804688 C-12.54017578 48.52109375 -13.25173828 48.04414062 -13.98486328 47.55273438 C-13.98486328 46.56273437 -13.98486328 45.57273437 -13.98486328 44.55273438 C-15.12955078 44.36710938 -15.12955078 44.36710938 -16.29736328 44.17773438 C-18.98486328 43.55273438 -18.98486328 43.55273438 -21.98486328 41.55273438 C-21.98486328 40.89273438 -21.98486328 40.23273437 -21.98486328 39.55273438 C-22.68611328 39.30523438 -23.38736328 39.05773437 -24.10986328 38.80273438 C-27.3880938 37.37741676 -30.04321995 35.58925668 -32.98486328 33.55273438 C-33.72478516 33.08480469 -34.46470703 32.616875 -35.22705078 32.13476562 C-41.78140302 27.95502297 -46.02981553 24.37292538 -47.98486328 16.55273438 C-48.66734925 12.34407087 -47.56476679 8.42881297 -45.71142578 4.64648438 C-37.33828595 -5.50736845 -11.39070855 -3.26871451 0 0 Z " fill="#999999" transform="translate(765.98486328125,672.447265625)"/>
<path d="M0 0 C0.83816254 0.0015509 1.67632507 0.00310181 2.53988647 0.00469971 C12.71769408 0.0267945 22.89132803 0.10136737 33.0625 0.5 C33.93616211 0.53077637 34.80982422 0.56155273 35.70996094 0.59326172 C41.24313124 0.85731995 46.38134785 1.79197133 51.75 3.125 C57.89372727 4.61288145 63.89248755 5.56094227 70.1875 6.125 C76.80610572 6.77115541 83.27668976 7.55204611 89.75 9.125 C90.53246094 9.31320312 91.31492187 9.50140625 92.12109375 9.6953125 C94.00088278 10.15792956 95.87607668 10.63916803 97.75 11.125 C94.20049966 12.28806443 91.19176052 12.04865049 87.5 11.6875 C86.42234375 11.58566406 85.3446875 11.48382812 84.234375 11.37890625 C83.41453125 11.29511719 82.5946875 11.21132813 81.75 11.125 C81.75 10.465 81.75 9.805 81.75 9.125 C80.68040039 9.04459473 79.61080078 8.96418945 78.50878906 8.88134766 C74.53480168 8.58038395 70.561742 8.26840846 66.58886719 7.953125 C64.87034998 7.81828849 63.15159668 7.68642623 61.43261719 7.55761719 C58.9596026 7.37178372 56.48763872 7.17521598 54.015625 6.9765625 C53.24881409 6.92126373 52.48200317 6.86596497 51.69195557 6.80899048 C47.85779554 6.49014709 45.13718208 5.84861038 41.75 4.125 C34.29710721 2.77443558 26.74101778 2.90251076 19.1875 2.80859375 C17.78645264 2.78798596 16.38541097 2.76698859 14.984375 2.74562073 C11.32172284 2.69079448 7.6590183 2.64121366 3.99627686 2.59277344 C0.24877336 2.54226773 -3.49865539 2.48673442 -7.24609375 2.43164062 C-14.58066562 2.32454263 -21.91530023 2.22299323 -29.25 2.125 C-29.25 1.795 -29.25 1.465 -29.25 1.125 C-19.50404705 -0.05886091 -9.79904474 -0.03193553 0 0 Z " fill="#E1E1E1" transform="translate(542.25,742.875)"/>
<path d="M0 0 C0 0.33 0 0.66 0 1 C-1.22074219 1.10957031 -2.44148438 1.21914063 -3.69921875 1.33203125 C-12.20320649 2.13648595 -20.3593658 3.15471539 -28.65234375 5.2734375 C-33.54171752 6.33460847 -38.46805787 6.84934505 -43.44189453 7.35351562 C-47.34601651 7.69791554 -47.34601651 7.69791554 -51 9 C-53.20633506 9.15635445 -55.41536469 9.27563738 -57.625 9.375 C-63.4130883 9.70772681 -63.4130883 9.70772681 -68.875 11.4375 C-73.40086123 13.45116612 -78.18952863 13.76272131 -83.05908203 14.29394531 C-86.86510567 14.71435215 -90.5340902 15.26314433 -94.25 16.1875 C-97.72817794 16.94110522 -98.80776934 16.99580647 -102 16 C-96.52977233 13.75329935 -91.86695897 12.61757463 -86 12 C-85.67 11.67 -85.34 11.34 -85 11 C-82.52010985 10.62523502 -80.05204807 10.29424021 -77.5625 10 C-72.63342275 9.55638533 -72.63342275 9.55638533 -68 8 C-66.12620395 7.92966231 -64.24998898 7.9156978 -62.375 7.9375 C-60.87066406 7.95103516 -60.87066406 7.95103516 -59.3359375 7.96484375 C-58.56507812 7.97644531 -57.79421875 7.98804688 -57 8 C-57 7.34 -57 6.68 -57 6 C-55.77482666 5.87939209 -55.77482666 5.87939209 -54.52490234 5.75634766 C-50.80751982 5.38635118 -47.0912925 5.00578268 -43.375 4.625 C-41.44720703 4.43550781 -41.44720703 4.43550781 -39.48046875 4.2421875 C-37.61455078 4.04882812 -37.61455078 4.04882812 -35.7109375 3.8515625 C-34.56931152 3.73635254 -33.42768555 3.62114258 -32.25146484 3.50244141 C-28.98333328 2.99742453 -26.1119609 2.09785285 -23 1 C-15.38901217 -0.11585714 -7.67711766 -0.13601193 0 0 Z " fill="#D0D0D0" transform="translate(1875,767)"/>
<path d="M0 0 C-7.41504009 2.40228081 -14.69821278 3.58664426 -22.42358398 4.35302734 C-26.01506668 4.41197479 -26.01506668 4.41197479 -29 6 C-30.80811184 6.20896317 -32.62216032 6.36780361 -34.4375 6.5 C-38.36434915 6.71419183 -38.36434915 6.71419183 -42 8 C-44.87910588 8.23274209 -47.74146495 8.41972757 -50.625 8.5625 C-51.42679688 8.60568359 -52.22859375 8.64886719 -53.0546875 8.69335938 C-55.0362511 8.79951457 -57.01810271 8.90026855 -59 9 C-59 8.67 -59 8.34 -59 8 C-53.63904667 6.87137825 -48.44693314 6.90311779 -43 7 C-43 6.34 -43 5.68 -43 5 C-36.6697366 3.97992327 -30.33634447 2.98159531 -24 2 C-23.03884277 1.85062988 -22.07768555 1.70125977 -21.08740234 1.54736328 C-18.22611861 1.1066136 -15.36340166 0.67675098 -12.5 0.25 C-11.59870361 0.11037842 -10.69740723 -0.02924316 -9.76879883 -0.1730957 C-8.92728271 -0.29644287 -8.0857666 -0.41979004 -7.21875 -0.546875 C-6.47560547 -0.65870117 -5.73246094 -0.77052734 -4.96679688 -0.88574219 C-3 -1 -3 -1 0 0 Z " fill="#D8D8D8" transform="translate(1864,816)"/>
<path d="M0 0 C0.65252243 -0.00550873 1.30504486 -0.01101746 1.9773407 -0.01669312 C4.10099688 -0.02841534 6.22399905 -0.02205959 8.34765625 -0.01171875 C9.06757751 -0.01056061 9.78749878 -0.00940247 10.52923584 -0.00820923 C19.43406129 0.02021967 28.21326188 0.27808023 37.03515625 1.61328125 C37.81366943 1.73082764 38.59218262 1.84837402 39.39428711 1.96948242 C43.83745107 2.74824282 47.48493674 4.09052358 51.41015625 6.30078125 C50.75015625 6.63078125 50.09015625 6.96078125 49.41015625 7.30078125 C48.58128906 7.01332031 47.75242187 6.72585938 46.8984375 6.4296875 C42.47855906 4.99929011 38.20798842 4.63963492 33.59765625 4.23828125 C31.88245569 4.08466225 30.16758345 3.92731594 28.453125 3.765625 C27.7005542 3.69980225 26.9479834 3.63397949 26.17260742 3.56616211 C24.41015625 3.30078125 24.41015625 3.30078125 23.41015625 2.30078125 C20.96185199 2.21234332 18.54195026 2.18549373 16.09375 2.203125 C15.36269547 2.20453995 14.63164093 2.2059549 13.87843323 2.20741272 C11.53479993 2.21302717 9.19126086 2.22558203 6.84765625 2.23828125 C5.26237117 2.24329439 3.67708459 2.24785762 2.09179688 2.25195312 C-1.80211985 2.26300128 -5.6959658 2.28027553 -9.58984375 2.30078125 C-5.98415799 -0.10300925 -4.28959053 0.03087697 0 0 Z " fill="#D8D8D8" transform="translate(1518.58984375,725.69921875)"/>
<path d="M0 0 C3.87417597 0.24111842 7.74779776 0.48975693 11.62109375 0.74462891 C13.56746837 0.87125708 15.5142004 0.99235359 17.4609375 1.11328125 C29.58340845 1.91732269 41.46391905 3.01287525 53 7 C49.45049966 8.16306443 46.44176052 7.92365049 42.75 7.5625 C41.67234375 7.46066406 40.5946875 7.35882812 39.484375 7.25390625 C38.66453125 7.17011719 37.8446875 7.08632813 37 7 C37 6.34 37 5.68 37 5 C35.37203491 4.87939209 35.37203491 4.87939209 33.71118164 4.75634766 C29.69804391 4.45652054 25.68595692 4.14424282 21.67407227 3.828125 C19.93507715 3.69286802 18.19581321 3.56102349 16.45629883 3.43261719 C13.96097084 3.24783072 11.46685599 3.05093221 8.97265625 2.8515625 C8.19036148 2.79626373 7.40806671 2.74096497 6.60206604 2.68399048 C4.72731049 2.52813745 2.86122335 2.27358029 1 2 C0.67 1.34 0.34 0.68 0 0 Z " fill="#CDCDCD" transform="translate(587,747)"/>
<path d="M0 0 C-2.03631825 2.03631825 -5.83026001 1.95178316 -8.625 2.4375 C-12.74300074 3.15416864 -16.72642702 3.92040995 -20.74609375 5.08984375 C-24.74172282 6.20746869 -27.8825891 6.14447056 -32 6 C-32 6.66 -32 7.32 -32 8 C-35.3 8.33 -38.6 8.66 -42 9 C-35.65312416 2.65312416 -21.41683902 2.04144376 -12.71484375 0.61328125 C-10.51815571 0.25063138 -8.32569948 -0.1440971 -6.1484375 -0.609375 C-3.77249238 -1.04136502 -2.2718159 -0.75727197 0 0 Z " fill="#C1C1C1" transform="translate(924,1830)"/>
<path d="M0 0 C9.57 0.33 19.14 0.66 29 1 C29.33 3.31 29.66 5.62 30 8 C28.35 8.99 26.7 9.98 25 11 C24.67 10.34 24.34 9.68 24 9 C24.99 8.67 25.98 8.34 27 8 C27.73323796 5.98491642 27.73323796 5.98491642 28 4 C22.02872819 3.01445028 16.10508542 2.68944649 10.0625 2.4375 C9.09248047 2.39431641 8.12246094 2.35113281 7.12304688 2.30664062 C4.74881399 2.20137907 2.37449079 2.09924293 0 2 C0 1.34 0 0.68 0 0 Z " fill="#B7B7B7" transform="translate(2011,766)"/>
<path d="M0 0 C0.33 0.66 0.66 1.32 1 2 C-0.07421875 4.27734375 -0.07421875 4.27734375 -1.6875 6.9375 C-2.20699219 7.81277344 -2.72648438 8.68804688 -3.26171875 9.58984375 C-4.98619588 11.98086035 -6.63843841 13.28836398 -9 15 C-9.67349161 16.66392045 -10.3409159 18.33032028 -11 20 C-11.99 20.33 -12.98 20.66 -14 21 C-14 21.66 -14 22.32 -14 23 C-14.66 23 -15.32 23 -16 23 C-14.30919257 19.37180905 -12.19604178 16.09250477 -10 12.75 C-9.29875 11.67234375 -8.5975 10.5946875 -7.875 9.484375 C-7.25625 8.66453125 -6.6375 7.8446875 -6 7 C-5.34 7 -4.68 7 -4 7 C-3.67 5.68 -3.34 4.36 -3 3 C-2.34 3 -1.68 3 -1 3 C-0.67 2.01 -0.34 1.02 0 0 Z " fill="#BCBCBC" transform="translate(820,1771)"/>
<path d="M0 0 C0.5625 1.9375 0.5625 1.9375 1 4 C0.67 4.33 0.34 4.66 0 5 C-0.3698855 6.82630965 -0.69673464 8.66145374 -1 10.5 C-1.88888889 15.88888889 -1.88888889 15.88888889 -3 17 C-3.3720248 18.5956376 -3.69819799 20.20210335 -4 21.8125 C-4.58429913 24.90289463 -5.20539872 27.95639333 -6 31 C-6.66 31 -7.32 31 -8 31 C-7.60529696 24.99779168 -6.39574174 20.55812085 -4 15 C-3.41519129 12.19211711 -2.94864602 9.38754986 -2.52734375 6.55078125 C-2.01280868 4.06195605 -1.24326436 2.20279619 0 0 Z " fill="#CBCBCB" transform="translate(1557,1235)"/>
<path d="M0 0 C1 2 1 2 0.375 4.375 C-1.26726456 7.51023234 -3.22918894 8.83741576 -6 11 C-7.01656081 12.65661761 -8.02065076 14.32111559 -9 16 C-9.66 16 -10.32 16 -11 16 C-11 16.66 -11 17.32 -11 18 C-12.32 18.33 -13.64 18.66 -15 19 C-15 18.34 -15 17.68 -15 17 C-14.34 17 -13.68 17 -13 17 C-12.731875 16.360625 -12.46375 15.72125 -12.1875 15.0625 C-11 13 -11 13 -8 12 C-6.95494265 10.16074601 -6.95494265 10.16074601 -6 8 C-4.98739559 6.56241654 -3.94487352 5.1454872 -2.875 3.75 C-2.06675781 2.69039062 -2.06675781 2.69039062 -1.2421875 1.609375 C-0.83226562 1.07828125 -0.42234375 0.5471875 0 0 Z " fill="#BABABA" transform="translate(1341,965)"/>
<path d="M0 0 C1.61383188 3.22766376 0.35510523 6.46145287 -0.3125 9.875 C-0.44333984 10.59558594 -0.57417969 11.31617188 -0.70898438 12.05859375 C-1.40464394 15.70828597 -2.3182813 18.7157023 -4 22 C-4.59298682 24.40458878 -5.13065418 26.82321143 -5.625 29.25 C-6.01558594 31.14492187 -6.01558594 31.14492187 -6.4140625 33.078125 C-6.60742188 34.04234375 -6.80078125 35.0065625 -7 36 C-7.33 36 -7.66 36 -8 36 C-6.99359687 27.11010564 -5.68314086 18.52425286 -2.66015625 10.078125 C-1.7080273 7.08089066 -1.38935903 4.11487223 -1 1 C-0.67 0.67 -0.34 0.34 0 0 Z " fill="#D0D0D0" transform="translate(1597,1068)"/>
<path d="M0 0 C0 3.73440366 -1.03455909 4.81463026 -3 8 C-4.26459533 10.52100558 -5.49675467 13.05574929 -6.71875 15.59765625 C-7.97429043 17.95179456 -9.25046119 19.98523855 -11 22 C-11.66 22 -12.32 22 -13 22 C-10.23591111 14.61593396 -5.64874206 5.64874206 0 0 Z " fill="#C9C9C9" transform="translate(953,1588)"/>
<path d="M0 0 C0 3.61806453 -0.86311787 4.20561568 -3 7 C-3.2578125 7.80050781 -3.515625 8.60101562 -3.78125 9.42578125 C-5.33506253 12.7077122 -6.97624802 13.57664955 -10.125 15.3125 C-11.03507812 15.82425781 -11.94515625 16.33601563 -12.8828125 16.86328125 C-13.58148437 17.23839844 -14.28015625 17.61351562 -15 18 C-14.1875 16.0625 -14.1875 16.0625 -13 14 C-12.01 13.67 -11.02 13.34 -10 13 C-9.30546568 11.68096843 -8.64400744 10.34442428 -8 9 C-6.66595884 7.3820063 -5.28788761 5.79961867 -3.875 4.25 C-3.15054687 3.45078125 -2.42609375 2.6515625 -1.6796875 1.828125 C-0.84824219 0.92320313 -0.84824219 0.92320313 0 0 Z " fill="#B8B8B8" transform="translate(1106,1299)"/>
<path d="M0 0 C0.33 0 0.66 0 1 0 C1.83784949 9.21634444 -1.21417631 17.33409845 -4 26 C-4.33 26 -4.66 26 -5 26 C-5.32784311 19.95949073 -4.13093049 14.85891514 -2.5 9.0625 C-2.26152344 8.18787109 -2.02304688 7.31324219 -1.77734375 6.41210938 C-1.19273616 4.27244561 -0.60015656 2.13534428 0 0 Z " fill="#C0C0C0" transform="translate(1364,888)"/>
<path d="M0 0 C-3.01331558 1.50665779 -6.25187581 1.56927751 -9.5625 1.9375 C-14.19570061 2.47349164 -18.71480221 3.06319636 -23.25 4.1875 C-26.72817794 4.94110522 -27.80776934 4.99580647 -31 4 C-25.0373501 1.49953391 -19.67180327 0.33471678 -13.25 -0.25 C-11.99509766 -0.38535156 -11.99509766 -0.38535156 -10.71484375 -0.5234375 C-6.83907821 -0.90668704 -3.77330344 -1.12029911 0 0 Z " fill="#C1C1C1" transform="translate(1804,779)"/>
<path d="M0 0 C1 2 1 2 0.3984375 4.171875 C-1.78262447 9.66615324 -4.0503221 13.62332989 -8 18 C-8.33 18.99 -8.66 19.98 -9 21 C-9.66 21 -10.32 21 -11 21 C-10.690625 20.236875 -10.38125 19.47375 -10.0625 18.6875 C-9.32106407 16.81210323 -8.63771783 14.91315348 -8 13 C-7.34 13 -6.68 13 -6 13 C-5.690625 12.05125 -5.38125 11.1025 -5.0625 10.125 C-4 7 -4 7 -3 5 C-2.34 5 -1.68 5 -1 5 C-0.67 3.35 -0.34 1.7 0 0 Z " fill="#C7C7C7" transform="translate(1126,1267)"/>
<path d="M0 0 C0.66 0 1.32 0 2 0 C0.99932468 7.06359048 -0.27114827 13.40527497 -3 20 C-3.67735217 21.99640639 -4.34838935 23.99504414 -5 26 C-6.79682741 21.82183505 -5.01913834 18.16651806 -3.625 14.125 C-2.03650013 9.42059653 -0.66678577 4.94662003 0 0 Z " fill="#CECECE" transform="translate(1611,1018)"/>
<path d="M0 0 C1 2 1 2 0.0625 5.125 C-0.288125 6.07375 -0.63875 7.0225 -1 8 C-1.66 8 -2.32 8 -3 8 C-3.66 10.97 -4.32 13.94 -5 17 C-5.66 17 -6.32 17 -7 17 C-4.27272727 4.27272727 -4.27272727 4.27272727 0 0 Z " fill="#C2C2C2" transform="translate(1053,1371)"/>
<path d="M0 0 C0.33 0.66 0.66 1.32 1 2 C0.109375 4.56640625 0.109375 4.56640625 -1.25 7.5625 C-1.68828125 8.55378906 -2.1265625 9.54507812 -2.578125 10.56640625 C-4 13 -4 13 -7 14 C-7.33 14.99 -7.66 15.98 -8 17 C-7.125 12.25 -7.125 12.25 -6 10 C-5.34 10 -4.68 10 -4 10 C-3.8453125 8.9171875 -3.8453125 8.9171875 -3.6875 7.8125 C-2.94013068 4.75508007 -1.71954811 2.61670365 0 0 Z " fill="#C4C4C4" transform="translate(1063,1352)"/>
<path d="M0 0 C0.66 0 1.32 0 2 0 C2.19401633 1.81181405 2.38004375 3.62448532 2.5625 5.4375 C2.66691406 6.44683594 2.77132812 7.45617187 2.87890625 8.49609375 C2.93884766 9.73552734 2.93884766 9.73552734 3 11 C2.67 11.33 2.34 11.66 2 12 C0.14227838 11.91015699 -1.71247985 11.75388139 -3.5625 11.5625 C-4.57441406 11.46066406 -5.58632813 11.35882812 -6.62890625 11.25390625 C-7.41136719 11.17011719 -8.19382812 11.08632813 -9 11 C-9 10.67 -9 10.34 -9 10 C-5.7 10 -2.4 10 1 10 C0.67 6.7 0.34 3.4 0 0 Z " fill="#D1D1D1" transform="translate(796,774)"/>
<path d="M0 0 C0.66 0.33 1.32 0.66 2 1 C0.57282151 2.67551353 -0.86708482 4.34019309 -2.3125 6 C-3.51326172 7.3921875 -3.51326172 7.3921875 -4.73828125 8.8125 C-7 11 -7 11 -10 11 C-10 10.34 -10 9.68 -10 9 C-9.34 9 -8.68 9 -8 9 C-8 8.34 -8 7.68 -8 7 C-7.34 7 -6.68 7 -6 7 C-6 6.34 -6 5.68 -6 5 C-5.34 5 -4.68 5 -4 5 C-4 4.34 -4 3.68 -4 3 C-2 1.375 -2 1.375 0 0 Z " fill="#BABABA" transform="translate(1430,760)"/>
<path d="M0 0 C-0.639375 0.309375 -1.27875 0.61875 -1.9375 0.9375 C-3.93610821 1.8345163 -3.93610821 1.8345163 -5 3 C-7.18292774 3.23481693 -9.37203174 3.41363323 -11.5625 3.5625 C-12.76003906 3.64628906 -13.95757812 3.73007812 -15.19140625 3.81640625 C-16.11824219 3.87699219 -17.04507812 3.93757812 -18 4 C-13.23935617 -0.76064383 -6.29730322 -0.25703278 0 0 Z " fill="#C1C1C1" transform="translate(496,748)"/>
<path d="M0 0 C-4.69564587 4.69564587 -11.71830576 4.52825221 -18 5 C-13.07058886 0.07058886 -6.71869782 -0.2035969 0 0 Z " fill="#D1D1D1" transform="translate(1237,1578)"/>
<path d="M0 0 C1.79341438 4.16673521 0.01173384 7.74663341 -1.4375 11.75 C-1.68048828 12.44738281 -1.92347656 13.14476562 -2.17382812 13.86328125 C-2.77310248 15.57885098 -3.38529885 17.28989715 -4 19 C-5.32810933 15.30090353 -4.6670918 12.68409044 -3.6875 8.9375 C-3.42324219 7.89464844 -3.15898438 6.85179687 -2.88671875 5.77734375 C-2 3 -2 3 0 0 Z " fill="#CBCBCB" transform="translate(1378,836)"/>
<path d="M0 0 C-5.64915606 3.76610404 -10.40077399 4.22755952 -17 4 C-12.64760099 -0.35239901 -5.82763193 -0.242818 0 0 Z " fill="#BEBEBE" transform="translate(1921,804)"/>
<path d="M0 0 C5.13572098 1.58022184 10.26098693 3.44592138 15 6 C15.33 6.66 15.66 7.32 16 8 C12.05050296 7.37183502 8.80107972 6.1354471 5.1875 4.4375 C3.72376953 3.75494141 3.72376953 3.75494141 2.23046875 3.05859375 C1.49441406 2.70925781 0.75835938 2.35992188 0 2 C0 1.34 0 0.68 0 0 Z " fill="#D1D1D1" transform="translate(926,735)"/>
<path d="M0 0 C1 2 1 2 0.3125 4.5 C-1.20787371 7.39594993 -2.14041682 7.65957039 -5 9 C-6.26804566 11.0335948 -6.26804566 11.0335948 -7 13 C-7.66 12.67 -8.32 12.34 -9 12 C-7.68858144 10.18671738 -6.37583526 8.37439486 -5.0625 6.5625 C-3.96615234 5.04849609 -3.96615234 5.04849609 -2.84765625 3.50390625 C-1 1 -1 1 0 0 Z " fill="#B9B9B9" transform="translate(910,1651)"/>
<path d="M0 0 C6.875 0.875 6.875 0.875 8 2 C10.52596259 2.23653523 13.03107207 2.42173692 15.5625 2.5625 C16.27341797 2.60568359 16.98433594 2.64886719 17.71679688 2.69335938 C19.47761912 2.79971777 21.2387832 2.90038846 23 3 C23 3.33 23 3.66 23 4 C20.29105233 4.08144943 17.58458737 4.14070614 14.875 4.1875 C13.73417969 4.22520508 13.73417969 4.22520508 12.5703125 4.26367188 C7.5975739 4.32797453 4.36383518 3.65594442 0 1 C0 0.67 0 0.34 0 0 Z " fill="#D4D4D4" transform="translate(1295,984)"/>
<path d="M0 0 C-1 1 -1 1 -4.0625 1.0625 C-5.031875 1.041875 -6.00125 1.02125 -7 1 C-7 1.66 -7 2.32 -7 3 C-13.4 6.07692308 -13.4 6.07692308 -16.4375 5.6875 C-16.953125 5.460625 -17.46875 5.23375 -18 5 C-17.34 5 -16.68 5 -16 5 C-16 4.34 -16 3.68 -16 3 C-14.4221875 2.566875 -14.4221875 2.566875 -12.8125 2.125 C-9.13631 1.12916788 -9.13631 1.12916788 -6.3125 -0.1875 C-3.71564467 -1.09990863 -2.54277378 -0.94176807 0 0 Z " fill="#CECECE" transform="translate(1479,736)"/>
<path d="M0 0 C-6.80074041 1.90420731 -12.91923749 3.40850553 -20 3 C-20 2.67 -20 2.34 -20 2 C-13.74892772 -0.46752853 -6.55782174 -2.00965505 0 0 Z " fill="#B8B8B8" transform="translate(1884,812)"/>
<path d="M0 0 C0.66 0.33 1.32 0.66 2 1 C0.7260411 3.03833424 -0.61061923 5.03852126 -2 7 C-2.66 7 -3.32 7 -4 7 C-4 7.66 -4 8.32 -4 9 C-5.96147874 10.38938077 -7.96166576 11.7260411 -10 13 C-8.4373676 9.16444775 -5.93550032 6.86390275 -3 4 C-1.97186389 2.68824014 -0.95915568 1.3630107 0 0 Z " fill="#BDBDBD" transform="translate(1418,771)"/>
<path d="M0 0 C6.30214697 0.33169195 10.85216936 3.67323988 16 7 C15.01 7.495 15.01 7.495 14 8 C11.55667274 6.92481882 9.23245477 5.80191434 6.875 4.5625 C6.21628906 4.22412109 5.55757812 3.88574219 4.87890625 3.53710938 C3.24893453 2.69850074 1.62398091 1.85015189 0 1 C0 0.67 0 0.34 0 0 Z " fill="#D0D0D0" transform="translate(942,744)"/>
<path d="M0 0 C2.97 0.495 2.97 0.495 6 1 C6 1.66 6 2.32 6 3 C6.763125 3.103125 7.52625 3.20625 8.3125 3.3125 C11.17059424 4.04364039 12.15742885 4.76951913 14 7 C8.70139194 5.7023817 4.65474354 3.84984298 0 1 C0 0.67 0 0.34 0 0 Z " fill="#CBCBCB" transform="translate(914,1137)"/>
<path d="M0 0 C5.19823509 2.39918542 9.85480451 5.10747369 13 10 C10.53199953 8.84826645 8.95216435 7.95216435 7 6 C5.989375 5.71125 4.97875 5.4225 3.9375 5.125 C2.968125 4.75375 1.99875 4.3825 1 4 C0.125 1.875 0.125 1.875 0 0 Z " fill="#CDCDCD" transform="translate(1128,861)"/>
<path d="M0 0 C1.98 0 3.96 0 6 0 C1.2446643 4.0237456 -3.93861976 5.13408854 -10 6 C-7.997499 3.997499 -6.593341 3.06784629 -4 2 C-2.68 2 -1.36 2 0 2 C0 1.34 0 0.68 0 0 Z " fill="#CBCBCB" transform="translate(466,753)"/>
<path d="M0 0 C0 3.25811062 -0.5522078 5.10441559 -2 8 C-2.99 8.33 -3.98 8.66 -5 9 C-5 9.66 -5 10.32 -5 11 C-5.66 11 -6.32 11 -7 11 C-5.22054913 6.95579349 -2.60470327 3.53921513 0 0 Z " fill="#C2C2C2" transform="translate(811,1783)"/>
<path d="M0 0 C0 3.33806496 -0.58108945 4.35678608 -2.3125 7.125 C-2.95638672 8.18074219 -2.95638672 8.18074219 -3.61328125 9.2578125 C-5 11 -5 11 -8 12 C-7.690625 11.401875 -7.38125 10.80375 -7.0625 10.1875 C-5.89790296 7.91043228 -5.89790296 7.91043228 -5 5 C-4.34 5 -3.68 5 -3 5 C-2.690625 4.360625 -2.38125 3.72125 -2.0625 3.0625 C-1 1 -1 1 0 0 Z " fill="#C5C5C5" transform="translate(851,1730)"/>
<path d="M0 0 C1.38480153 2.76960305 0.61874033 4.07013065 -0.25 7 C-0.62898437 8.3303125 -0.62898437 8.3303125 -1.015625 9.6875 C-2 12 -2 12 -5 14 C-5 12.68 -5 11.36 -5 10 C-4.34 10 -3.68 10 -3 10 C-3.061875 9.278125 -3.12375 8.55625 -3.1875 7.8125 C-2.96476068 4.47141026 -1.8717754 2.72967245 0 0 Z " fill="#BFBFBF" transform="translate(999,1504)"/>
<path d="M0 0 C-1.91345327 0.53251766 -3.8309295 1.05059483 -5.75 1.5625 C-6.81734375 1.85253906 -7.8846875 2.14257812 -8.984375 2.44140625 C-11.84335927 2.97098494 -13.31597383 2.98370862 -16 2 C-13.04655319 0.03103546 -11.94214163 -0.33984715 -8.5625 -0.6875 C-7.41974609 -0.81705078 -7.41974609 -0.81705078 -6.25390625 -0.94921875 C-3.96788208 -1.00072363 -2.17903015 -0.66016176 0 0 Z " fill="#CFCFCF" transform="translate(1990,790)"/>
<path d="M0 0 C0.5625 1.9375 0.5625 1.9375 1 4 C0.67 4.33 0.34 4.66 0 5 C-0.07148199 6.35243917 -0.08399454 7.70834367 -0.0625 9.0625 C-0.041875 10.361875 -0.02125 11.66125 0 13 C-1.5625 11.9375 -1.5625 11.9375 -3 10 C-2.77589301 5.81666944 -2.3385104 3.50776561 0 0 Z " fill="#D4D4D4" transform="translate(719,679)"/>
<path d="M0 0 C1 2 1 2 0.3125 5.4375 C-1.01705094 9.04628112 -1.73730489 10.15113944 -5 12 C-5 10.68 -5 9.36 -5 8 C-4.34 8 -3.68 8 -3 8 C-2.690625 6.865625 -2.38125 5.73125 -2.0625 4.5625 C-1 1 -1 1 0 0 Z " fill="#B7B7B7" transform="translate(959,1578)"/>
<path d="M0 0 C0.33 0.66 0.66 1.32 1 2 C-1.16798732 7.4770206 -1.16798732 7.4770206 -4.1875 9.375 C-4.785625 9.58125 -5.38375 9.7875 -6 10 C-4.125 5.25 -4.125 5.25 -3 3 C-2.34 3 -1.68 3 -1 3 C-0.67 2.01 -0.34 1.02 0 0 Z " fill="#C1C1C1" transform="translate(927,1627)"/>
<path d="M0 0 C5.29441695 -0.50423019 7.81413519 0.81076967 12 4 C8.35839192 5.21386936 7.66834531 4.6674695 4.3125 3.0625 C3.10013672 2.49208984 3.10013672 2.49208984 1.86328125 1.91015625 C1.24839844 1.60980469 0.63351562 1.30945312 0 1 C0 0.67 0 0.34 0 0 Z " fill="#B6B6B6" transform="translate(996,1170)"/>
<path d="M0 0 C0.33 1.32 0.66 2.64 1 4 C-1.97 6.475 -1.97 6.475 -5 9 C-3.90931332 5.22454612 -3.0916909 2.52956528 0 0 Z " fill="#C0C0C0" transform="translate(865,1711)"/>
<path d="M0 0 C0.33 0.66 0.66 1.32 1 2 C0.67 2.99 0.34 3.98 0 5 C-0.66 5 -1.32 5 -2 5 C-2.12375 5.763125 -2.2475 6.52625 -2.375 7.3125 C-3 10 -3 10 -5 13 C-3.28571429 3.28571429 -3.28571429 3.28571429 0 0 Z " fill="#BFBFBF" transform="translate(1519,1341)"/>
<path d="M0 0 C0.66 0 1.32 0 2 0 C1.5205537 4.21912747 0.83374881 6.79663178 -2 10 C-1.85950482 8.52031676 -1.71245174 7.04125484 -1.5625 5.5625 C-1.48128906 4.73878906 -1.40007812 3.91507813 -1.31640625 3.06640625 C-1 1 -1 1 0 0 Z " fill="#C5C5C5" transform="translate(1615,1008)"/>
<path d="M0 0 C0.8125 1.6875 0.8125 1.6875 1 4 C-1.1613627 6.51185394 -3.01962439 8.50981219 -6 10 C-4.6302836 6.00499382 -2.74277578 3.19990508 0 0 Z " fill="#BDBDBD" transform="translate(878,1694)"/>
<path d="M0 0 C0.66 0 1.32 0 2 0 C1.5251065 4.11574371 0.9789756 7.36383344 -1 11 C-1.0270043 9.54176788 -1.04639787 8.08339325 -1.0625 6.625 C-1.07410156 5.81289063 -1.08570313 5.00078125 -1.09765625 4.1640625 C-1 2 -1 2 0 0 Z " fill="#D3D3D3" transform="translate(1371,855)"/>
<path d="M0 0 C0.33 1.32 0.66 2.64 1 4 C0.01 5.485 0.01 5.485 -1 7 C-1.66 7 -2.32 7 -3 7 C-3 7.99 -3 8.98 -3 10 C-3.66 9.67 -4.32 9.34 -5 9 C-3.35 6.03 -1.7 3.06 0 0 Z " fill="#D6D6D6" transform="translate(1037,1723)"/>
<path d="M0 0 C4.95 1.98 4.95 1.98 10 4 C10 4.99 10 5.98 10 7 C6.66666667 5.33333333 3.33333333 3.66666667 0 2 C0 1.34 0 0.68 0 0 Z " fill="#C8C8C8" transform="translate(795,1071)"/>
<path d="M0 0 C0.33 0 0.66 0 1 0 C1 3.3 1 6.6 1 10 C0.34 10 -0.32 10 -1 10 C-1.33 11.32 -1.66 12.64 -2 14 C-2.04254356 12.00045254 -2.04080783 9.99958364 -2 8 C-1.67 7.67 -1.34 7.34 -1 7 C-0.63239269 4.67182036 -0.29758419 2.3381615 0 0 Z " fill="#E2E2E2" transform="translate(1365,878)"/>
<path d="M0 0 C0.33 1.32 0.66 2.64 1 4 C0.01 4.66 -0.98 5.32 -2 6 C-2.33 6.99 -2.66 7.98 -3 9 C-3.66 9 -4.32 9 -5 9 C-3.7508258 5.54074837 -2.32472205 2.85306797 0 0 Z " fill="#C0C0C0" transform="translate(793,1809)"/>
<path d="M0 0 C0.8125 1.625 0.8125 1.625 1 4 C-0.46818136 6.24609835 -2.15852858 8.02378677 -4 10 C-4 5.75354935 -2.18249194 3.61475228 0 0 Z " fill="#A8A8A8" transform="translate(971,1560)"/>
<path d="M0 0 C3.93673644 1.31224548 6.22719294 2.91910327 9 6 C6.03 5.01 3.06 4.02 0 3 C0 2.01 0 1.02 0 0 Z " fill="#C8C8C8" transform="translate(1259,962)"/>
<path d="M0 0 C0.66 0.33 1.32 0.66 2 1 C-0.52956528 4.0916909 -3.22454612 4.90931332 -7 6 C-6.34 5.01 -5.68 4.02 -5 3 C-4.34 3 -3.68 3 -3 3 C-3 2.34 -3 1.68 -3 1 C-2.01 0.67 -1.02 0.34 0 0 Z " fill="#C6C6C6" transform="translate(1153,1606)"/>
<path d="M0 0 C1 3 1 3 0.1875 5.0625 C-1 7 -1 7 -3 9 C-2.5020163 5.26512223 -2.12508244 3.18762365 0 0 Z " fill="#B0B0B0" transform="translate(1014,1471)"/>
<path d="M0 0 C0.66 0 1.32 0 2 0 C1.50168276 3.68754757 0.89932357 5.60490662 -2 8 C-2 4.79604584 -1.25664978 2.90600261 0 0 Z " fill="#CDCDCD" transform="translate(1503,1368)"/>
<path d="M0 0 C-3.20336822 2.83374881 -5.78087253 3.5205537 -10 4 C-6.58908673 0.88145073 -4.68377325 -0.53528837 0 0 Z " fill="#D6D6D6" transform="translate(1490,731)"/>
</svg>
